<?xml version="1.0" encoding="utf-8" standalone="no"?>
<!DOCTYPE svg PUBLIC "-//W3C//DTD SVG 1.1//EN"
  "http://www.w3.org/Graphics/SVG/1.1/DTD/svg11.dtd">
<svg xmlns:xlink="http://www.w3.org/1999/xlink" width="547.940632pt" height="169.230997pt" viewBox="0 0 547.940632 169.230997" xmlns="http://www.w3.org/2000/svg" version="1.1">
 <metadata>
  <rdf:RDF xmlns:dc="http://purl.org/dc/elements/1.1/" xmlns:cc="http://creativecommons.org/ns#" xmlns:rdf="http://www.w3.org/1999/02/22-rdf-syntax-ns#">
   <cc:Work>
    <dc:type rdf:resource="http://purl.org/dc/dcmitype/StillImage"/>
    <dc:date>2026-08-06T16:02:24.141641</dc:date>
    <dc:format>image/svg+xml</dc:format>
    <dc:creator>
     <cc:Agent>
      <dc:title>Matplotlib v3.5.3, https://matplotlib.org/</dc:title>
     </cc:Agent>
    </dc:creator>
   </cc:Work>
  </rdf:RDF>
 </metadata>
 <defs>
  <style type="text/css">*{stroke-linejoin: round; stroke-linecap: butt}</style>
 </defs>
 <g id="figure_1">
  <g id="patch_1">
   <path d="M 0 169.230997 
L 547.940632 169.230997 
L 547.940632 0 
L 0 0 
z
" style="fill: #ffffff"/>
  </g>
  <g id="axes_1">
   <g id="patch_2">
    <path d="M 38.812656 138.727559 
L 168.497696 138.727559 
L 168.497696 30.217323 
L 38.812656 30.217323 
z
" style="fill: #ffffff"/>
   </g>
   <g id="matplotlib.axis_1">
    <g id="xtick_1">
     <g id="line2d_1">
      <defs>
       <path id="m9dfa40efad" d="M 0 0 
L 0 3 
" style="stroke: #000000; stroke-width: 0.8"/>
      </defs>
      <g>
       <use xlink:href="#m9dfa40efad" x="39.09336" y="138.727559" style="stroke: #000000; stroke-width: 0.8"/>
      </g>
     </g>
     <g id="text_1">
      <text style="font: 7px 'sans-serif'; text-anchor: middle" x="39.09336" y="150.238028" transform="rotate(-0, 39.09336, 150.238028)">0</text>
     </g>
    </g>
    <g id="xtick_2">
     <g id="line2d_2">
      <g>
       <use xlink:href="#m9dfa40efad" x="67.163715" y="138.727559" style="stroke: #000000; stroke-width: 0.8"/>
      </g>
     </g>
     <g id="text_2">
      <text style="font: 7px 'sans-serif'; text-anchor: middle" x="67.163715" y="150.238028" transform="rotate(-0, 67.163715, 150.238028)">5</text>
     </g>
    </g>
    <g id="xtick_3">
     <g id="line2d_3">
      <g>
       <use xlink:href="#m9dfa40efad" x="95.234069" y="138.727559" style="stroke: #000000; stroke-width: 0.8"/>
      </g>
     </g>
     <g id="text_3">
      <text style="font: 7px 'sans-serif'; text-anchor: middle" x="95.234069" y="150.238028" transform="rotate(-0, 95.234069, 150.238028)">10</text>
     </g>
    </g>
    <g id="xtick_4">
     <g id="line2d_4">
      <g>
       <use xlink:href="#m9dfa40efad" x="123.304424" y="138.727559" style="stroke: #000000; stroke-width: 0.8"/>
      </g>
     </g>
     <g id="text_4">
      <text style="font: 7px 'sans-serif'; text-anchor: middle" x="123.304424" y="150.238028" transform="rotate(-0, 123.304424, 150.238028)">15</text>
     </g>
    </g>
    <g id="xtick_5">
     <g id="line2d_5">
      <g>
       <use xlink:href="#m9dfa40efad" x="151.374779" y="138.727559" style="stroke: #000000; stroke-width: 0.8"/>
      </g>
     </g>
     <g id="text_5">
      <text style="font: 7px 'sans-serif'; text-anchor: middle" x="151.374779" y="150.238028" transform="rotate(-0, 151.374779, 150.238028)">20</text>
     </g>
    </g>
    <g id="text_6">
     <text style="font: 7px 'sans-serif'; text-anchor: middle" x="103.655176" y="160.639747" transform="rotate(-0, 103.655176, 160.639747)">Generation</text>
    </g>
   </g>
   <g id="matplotlib.axis_2">
    <g id="ytick_1">
     <g id="line2d_6">
      <path d="M 38.812656 132.05008 
L 168.497696 132.05008 
" clip-path="url(#pd95825807e)" style="fill: none; stroke-dasharray: 0.8,1.32; stroke-dashoffset: 0; stroke: #b0b0b0; stroke-opacity: 0.25; stroke-width: 0.8"/>
     </g>
     <g id="line2d_7">
      <defs>
       <path id="ma96f5fce53" d="M 0 0 
L -3 0 
" style="stroke: #000000; stroke-width: 0.8"/>
      </defs>
      <g>
       <use xlink:href="#ma96f5fce53" x="38.812656" y="132.05008" style="stroke: #000000; stroke-width: 0.8"/>
      </g>
     </g>
     <g id="text_7">
      <text style="font: 7px 'sans-serif'; text-anchor: end" x="32.312656" y="134.555315" transform="rotate(-0, 32.312656, 134.555315)">0.84</text>
     </g>
    </g>
    <g id="ytick_2">
     <g id="line2d_8">
      <path d="M 38.812656 102.624706 
L 168.497696 102.624706 
" clip-path="url(#pd95825807e)" style="fill: none; stroke-dasharray: 0.8,1.32; stroke-dashoffset: 0; stroke: #b0b0b0; stroke-opacity: 0.25; stroke-width: 0.8"/>
     </g>
     <g id="line2d_9">
      <g>
       <use xlink:href="#ma96f5fce53" x="38.812656" y="102.624706" style="stroke: #000000; stroke-width: 0.8"/>
      </g>
     </g>
     <g id="text_8">
      <text style="font: 7px 'sans-serif'; text-anchor: end" x="32.312656" y="105.12994" transform="rotate(-0, 32.312656, 105.12994)">0.86</text>
     </g>
    </g>
    <g id="ytick_3">
     <g id="line2d_10">
      <path d="M 38.812656 73.199331 
L 168.497696 73.199331 
" clip-path="url(#pd95825807e)" style="fill: none; stroke-dasharray: 0.8,1.32; stroke-dashoffset: 0; stroke: #b0b0b0; stroke-opacity: 0.25; stroke-width: 0.8"/>
     </g>
     <g id="line2d_11">
      <g>
       <use xlink:href="#ma96f5fce53" x="38.812656" y="73.199331" style="stroke: #000000; stroke-width: 0.8"/>
      </g>
     </g>
     <g id="text_9">
      <text style="font: 7px 'sans-serif'; text-anchor: end" x="32.312656" y="75.704565" transform="rotate(-0, 32.312656, 75.704565)">0.88</text>
     </g>
    </g>
    <g id="ytick_4">
     <g id="line2d_12">
      <path d="M 38.812656 43.773956 
L 168.497696 43.773956 
" clip-path="url(#pd95825807e)" style="fill: none; stroke-dasharray: 0.8,1.32; stroke-dashoffset: 0; stroke: #b0b0b0; stroke-opacity: 0.25; stroke-width: 0.8"/>
     </g>
     <g id="line2d_13">
      <g>
       <use xlink:href="#ma96f5fce53" x="38.812656" y="43.773956" style="stroke: #000000; stroke-width: 0.8"/>
      </g>
     </g>
     <g id="text_10">
      <text style="font: 7px 'sans-serif'; text-anchor: end" x="32.312656" y="46.27919" transform="rotate(-0, 32.312656, 46.27919)">0.90</text>
     </g>
    </g>
    <g id="text_11">
     <!-- $\mathrm{Div}_{\mathrm{pair}}(g)$ -->
     <g transform="translate(12.52 100.047441)rotate(-90)">
      <text>
       <tspan style="font: 7px 'DejaVu Sans'" x="0 5.390137 7.334961 21.224902 28.399219" y="-0.6875">Div()</tspan>
       <tspan style="font: 4.9px 'DejaVu Sans'" x="11.544531 14.654883 17.657568 19.018945" y="0.4609375">pair</tspan>
       <tspan style="font: oblique 7px 'DejaVu Sans'" x="23.955859" y="-0.6875">g</tspan>
      </text>
     </g>
    </g>
   </g>
   <g id="line2d_14">
    <path d="M 44.707431 133.795276 
L 50.321502 125.47921 
L 55.935573 49.890989 
L 61.549644 57.761817 
L 67.163715 55.979259 
L 72.777786 55.979259 
L 78.391857 68.241607 
L 84.005928 68.241607 
L 89.619999 45.866273 
L 95.234069 35.149606 
L 100.84814 62.43691 
L 106.462211 56.597816 
L 112.076282 56.811444 
L 117.690353 44.291249 
L 123.304424 48.821538 
L 128.918495 59.350254 
L 134.532566 59.350254 
L 140.146637 39.921133 
L 145.760708 40.436267 
L 151.374779 46.239808 
L 156.98885 50.655005 
L 162.602921 65.727363 
" clip-path="url(#pd95825807e)" style="fill: none; stroke: #4c78a8; stroke-width: 1.2; stroke-linecap: square"/>
   </g>
   <g id="patch_3">
    <path d="M 38.812656 138.727559 
L 38.812656 30.217323 
" style="fill: none; stroke: #000000; stroke-width: 0.8; stroke-linejoin: miter; stroke-linecap: square"/>
   </g>
   <g id="patch_4">
    <path d="M 38.812656 138.727559 
L 168.497696 138.727559 
" style="fill: none; stroke: #000000; stroke-width: 0.8; stroke-linejoin: miter; stroke-linecap: square"/>
   </g>
   <g id="text_12">
    <text style="font: 8px 'sans-serif'; text-anchor: middle" x="103.655176" y="24.217323" transform="rotate(-0, 103.655176, 24.217323)">Population diversity</text>
   </g>
  </g>
  <g id="axes_2">
   <g id="patch_5">
    <path d="M 212.590609 138.727559 
L 342.275648 138.727559 
L 342.275648 30.217323 
L 212.590609 30.217323 
z
" style="fill: #ffffff"/>
   </g>
   <g id="patch_6">
    <path d="M 218.485384 138.727559 
L 222.550745 138.727559 
L 222.550745 35.384477 
L 218.485384 35.384477 
z
" clip-path="url(#pd7647f8159)" style="fill: #e45756; opacity: 0.85"/>
   </g>
   <g id="patch_7">
    <path d="M 223.905866 138.727559 
L 227.971228 138.727559 
L 227.971228 97.390326 
L 223.905866 97.390326 
z
" clip-path="url(#pd7647f8159)" style="fill: #e45756; opacity: 0.85"/>
   </g>
   <g id="patch_8">
    <path d="M 229.326348 138.727559 
L 233.39171 138.727559 
L 233.39171 97.390326 
L 229.326348 97.390326 
z
" clip-path="url(#pd7647f8159)" style="fill: #e45756; opacity: 0.85"/>
   </g>
   <g id="patch_9">
    <path d="M 234.74683 138.727559 
L 238.812192 138.727559 
L 238.812192 118.058943 
L 234.74683 118.058943 
z
" clip-path="url(#pd7647f8159)" style="fill: #e45756; opacity: 0.85"/>
   </g>
   <g id="patch_10">
    <path d="M 240.167313 138.727559 
L 244.232675 138.727559 
L 244.232675 76.72171 
L 240.167313 76.72171 
z
" clip-path="url(#pd7647f8159)" style="fill: #e45756; opacity: 0.85"/>
   </g>
   <g id="patch_11">
    <path d="M 245.587795 138.727559 
L 249.653157 138.727559 
L 249.653157 138.727559 
L 245.587795 138.727559 
z
" clip-path="url(#pd7647f8159)" style="fill: #e45756; opacity: 0.85"/>
   </g>
   <g id="patch_12">
    <path d="M 251.008277 138.727559 
L 255.073639 138.727559 
L 255.073639 128.393251 
L 251.008277 128.393251 
z
" clip-path="url(#pd7647f8159)" style="fill: #e45756; opacity: 0.85"/>
   </g>
   <g id="patch_13">
    <path d="M 256.42876 138.727559 
L 260.494121 138.727559 
L 260.494121 138.727559 
L 256.42876 138.727559 
z
" clip-path="url(#pd7647f8159)" style="fill: #e45756; opacity: 0.85"/>
   </g>
   <g id="patch_14">
    <path d="M 261.849242 138.727559 
L 265.914604 138.727559 
L 265.914604 118.058943 
L 261.849242 118.058943 
z
" clip-path="url(#pd7647f8159)" style="fill: #e45756; opacity: 0.85"/>
   </g>
   <g id="patch_15">
    <path d="M 267.269724 138.727559 
L 271.335086 138.727559 
L 271.335086 107.724634 
L 267.269724 107.724634 
z
" clip-path="url(#pd7647f8159)" style="fill: #e45756; opacity: 0.85"/>
   </g>
   <g id="patch_16">
    <path d="M 272.690207 138.727559 
L 276.755568 138.727559 
L 276.755568 118.058943 
L 272.690207 118.058943 
z
" clip-path="url(#pd7647f8159)" style="fill: #e45756; opacity: 0.85"/>
   </g>
   <g id="patch_17">
    <path d="M 278.110689 138.727559 
L 282.176051 138.727559 
L 282.176051 107.724634 
L 278.110689 107.724634 
z
" clip-path="url(#pd7647f8159)" style="fill: #e45756; opacity: 0.85"/>
   </g>
   <g id="patch_18">
    <path d="M 283.531171 138.727559 
L 287.596533 138.727559 
L 287.596533 128.393251 
L 283.531171 128.393251 
z
" clip-path="url(#pd7647f8159)" style="fill: #e45756; opacity: 0.85"/>
   </g>
   <g id="patch_19">
    <path d="M 288.951654 138.727559 
L 293.017015 138.727559 
L 293.017015 128.393251 
L 288.951654 128.393251 
z
" clip-path="url(#pd7647f8159)" style="fill: #e45756; opacity: 0.85"/>
   </g>
   <g id="patch_20">
    <path d="M 294.372136 138.727559 
L 298.437498 138.727559 
L 298.437498 118.058943 
L 294.372136 118.058943 
z
" clip-path="url(#pd7647f8159)" style="fill: #e45756; opacity: 0.85"/>
   </g>
   <g id="patch_21">
    <path d="M 299.792618 138.727559 
L 303.85798 138.727559 
L 303.85798 128.393251 
L 299.792618 128.393251 
z
" clip-path="url(#pd7647f8159)" style="fill: #e45756; opacity: 0.85"/>
   </g>
   <g id="patch_22">
    <path d="M 305.213101 138.727559 
L 309.278462 138.727559 
L 309.278462 138.727559 
L 305.213101 138.727559 
z
" clip-path="url(#pd7647f8159)" style="fill: #e45756; opacity: 0.85"/>
   </g>
   <g id="patch_23">
    <path d="M 310.633583 138.727559 
L 314.698945 138.727559 
L 314.698945 118.058943 
L 310.633583 118.058943 
z
" clip-path="url(#pd7647f8159)" style="fill: #e45756; opacity: 0.85"/>
   </g>
   <g id="patch_24">
    <path d="M 316.054065 138.727559 
L 320.119427 138.727559 
L 320.119427 118.058943 
L 316.054065 118.058943 
z
" clip-path="url(#pd7647f8159)" style="fill: #e45756; opacity: 0.85"/>
   </g>
   <g id="patch_25">
    <path d="M 321.474547 138.727559 
L 325.539909 138.727559 
L 325.539909 128.393251 
L 321.474547 128.393251 
z
" clip-path="url(#pd7647f8159)" style="fill: #e45756; opacity: 0.85"/>
   </g>
   <g id="patch_26">
    <path d="M 326.89503 138.727559 
L 330.960392 138.727559 
L 330.960392 128.393251 
L 326.89503 128.393251 
z
" clip-path="url(#pd7647f8159)" style="fill: #e45756; opacity: 0.85"/>
   </g>
   <g id="patch_27">
    <path d="M 332.315512 138.727559 
L 336.380874 138.727559 
L 336.380874 128.393251 
L 332.315512 128.393251 
z
" clip-path="url(#pd7647f8159)" style="fill: #e45756; opacity: 0.85"/>
   </g>
   <g id="matplotlib.axis_3">
    <g id="xtick_6">
     <g id="line2d_15">
      <g>
       <use xlink:href="#m9dfa40efad" x="215.097582" y="138.727559" style="stroke: #000000; stroke-width: 0.8"/>
      </g>
     </g>
     <g id="text_13">
      <text style="font: 7px 'sans-serif'; text-anchor: middle" x="215.097582" y="150.238028" transform="rotate(-0, 215.097582, 150.238028)">0</text>
     </g>
    </g>
    <g id="xtick_7">
     <g id="line2d_16">
      <g>
       <use xlink:href="#m9dfa40efad" x="242.199994" y="138.727559" style="stroke: #000000; stroke-width: 0.8"/>
      </g>
     </g>
     <g id="text_14">
      <text style="font: 7px 'sans-serif'; text-anchor: middle" x="242.199994" y="150.238028" transform="rotate(-0, 242.199994, 150.238028)">5</text>
     </g>
    </g>
    <g id="xtick_8">
     <g id="line2d_17">
      <g>
       <use xlink:href="#m9dfa40efad" x="269.302405" y="138.727559" style="stroke: #000000; stroke-width: 0.8"/>
      </g>
     </g>
     <g id="text_15">
      <text style="font: 7px 'sans-serif'; text-anchor: middle" x="269.302405" y="150.238028" transform="rotate(-0, 269.302405, 150.238028)">10</text>
     </g>
    </g>
    <g id="xtick_9">
     <g id="line2d_18">
      <g>
       <use xlink:href="#m9dfa40efad" x="296.404817" y="138.727559" style="stroke: #000000; stroke-width: 0.8"/>
      </g>
     </g>
     <g id="text_16">
      <text style="font: 7px 'sans-serif'; text-anchor: middle" x="296.404817" y="150.238028" transform="rotate(-0, 296.404817, 150.238028)">15</text>
     </g>
    </g>
    <g id="xtick_10">
     <g id="line2d_19">
      <g>
       <use xlink:href="#m9dfa40efad" x="323.507228" y="138.727559" style="stroke: #000000; stroke-width: 0.8"/>
      </g>
     </g>
     <g id="text_17">
      <text style="font: 7px 'sans-serif'; text-anchor: middle" x="323.507228" y="150.238028" transform="rotate(-0, 323.507228, 150.238028)">20</text>
     </g>
    </g>
    <g id="text_18">
     <text style="font: 7px 'sans-serif'; text-anchor: middle" x="277.433129" y="160.639747" transform="rotate(-0, 277.433129, 160.639747)">Generation</text>
    </g>
   </g>
   <g id="matplotlib.axis_4">
    <g id="ytick_5">
     <g id="line2d_20">
      <path d="M 212.590609 138.727559 
L 342.275648 138.727559 
" clip-path="url(#pd7647f8159)" style="fill: none; stroke-dasharray: 0.8,1.32; stroke-dashoffset: 0; stroke: #b0b0b0; stroke-opacity: 0.2; stroke-width: 0.8"/>
     </g>
     <g id="line2d_21">
      <g>
       <use xlink:href="#ma96f5fce53" x="212.590609" y="138.727559" style="stroke: #000000; stroke-width: 0.8"/>
      </g>
     </g>
     <g id="text_19">
      <text style="font: 7px 'sans-serif'; text-anchor: end" x="206.090609" y="141.232793" transform="rotate(-0, 206.090609, 141.232793)">0</text>
     </g>
    </g>
    <g id="ytick_6">
     <g id="line2d_22">
      <path d="M 212.590609 118.058943 
L 342.275648 118.058943 
" clip-path="url(#pd7647f8159)" style="fill: none; stroke-dasharray: 0.8,1.32; stroke-dashoffset: 0; stroke: #b0b0b0; stroke-opacity: 0.2; stroke-width: 0.8"/>
     </g>
     <g id="line2d_23">
      <g>
       <use xlink:href="#ma96f5fce53" x="212.590609" y="118.058943" style="stroke: #000000; stroke-width: 0.8"/>
      </g>
     </g>
     <g id="text_20">
      <text style="font: 7px 'sans-serif'; text-anchor: end" x="206.090609" y="120.564177" transform="rotate(-0, 206.090609, 120.564177)">2</text>
     </g>
    </g>
    <g id="ytick_7">
     <g id="line2d_24">
      <path d="M 212.590609 97.390326 
L 342.275648 97.390326 
" clip-path="url(#pd7647f8159)" style="fill: none; stroke-dasharray: 0.8,1.32; stroke-dashoffset: 0; stroke: #b0b0b0; stroke-opacity: 0.2; stroke-width: 0.8"/>
     </g>
     <g id="line2d_25">
      <g>
       <use xlink:href="#ma96f5fce53" x="212.590609" y="97.390326" style="stroke: #000000; stroke-width: 0.8"/>
      </g>
     </g>
     <g id="text_21">
      <text style="font: 7px 'sans-serif'; text-anchor: end" x="206.090609" y="99.895561" transform="rotate(-0, 206.090609, 99.895561)">4</text>
     </g>
    </g>
    <g id="ytick_8">
     <g id="line2d_26">
      <path d="M 212.590609 76.72171 
L 342.275648 76.72171 
" clip-path="url(#pd7647f8159)" style="fill: none; stroke-dasharray: 0.8,1.32; stroke-dashoffset: 0; stroke: #b0b0b0; stroke-opacity: 0.2; stroke-width: 0.8"/>
     </g>
     <g id="line2d_27">
      <g>
       <use xlink:href="#ma96f5fce53" x="212.590609" y="76.72171" style="stroke: #000000; stroke-width: 0.8"/>
      </g>
     </g>
     <g id="text_22">
      <text style="font: 7px 'sans-serif'; text-anchor: end" x="206.090609" y="79.226944" transform="rotate(-0, 206.090609, 79.226944)">6</text>
     </g>
    </g>
    <g id="ytick_9">
     <g id="line2d_28">
      <path d="M 212.590609 56.053093 
L 342.275648 56.053093 
" clip-path="url(#pd7647f8159)" style="fill: none; stroke-dasharray: 0.8,1.32; stroke-dashoffset: 0; stroke: #b0b0b0; stroke-opacity: 0.2; stroke-width: 0.8"/>
     </g>
     <g id="line2d_29">
      <g>
       <use xlink:href="#ma96f5fce53" x="212.590609" y="56.053093" style="stroke: #000000; stroke-width: 0.8"/>
      </g>
     </g>
     <g id="text_23">
      <text style="font: 7px 'sans-serif'; text-anchor: end" x="206.090609" y="58.558328" transform="rotate(-0, 206.090609, 58.558328)">8</text>
     </g>
    </g>
    <g id="ytick_10">
     <g id="line2d_30">
      <path d="M 212.590609 35.384477 
L 342.275648 35.384477 
" clip-path="url(#pd7647f8159)" style="fill: none; stroke-dasharray: 0.8,1.32; stroke-dashoffset: 0; stroke: #b0b0b0; stroke-opacity: 0.2; stroke-width: 0.8"/>
     </g>
     <g id="line2d_31">
      <g>
       <use xlink:href="#ma96f5fce53" x="212.590609" y="35.384477" style="stroke: #000000; stroke-width: 0.8"/>
      </g>
     </g>
     <g id="text_24">
      <text style="font: 7px 'sans-serif'; text-anchor: end" x="206.090609" y="37.889711" transform="rotate(-0, 206.090609, 37.889711)">10</text>
     </g>
    </g>
    <g id="text_25">
     <!-- $\mathrm{Novel}_{\tau}(g)$ -->
     <g transform="translate(192.835297 100.992441)rotate(-90)">
      <text>
       <tspan style="font: 7px 'DejaVu Sans'" x="0 5.236328 9.519043 13.661621 17.968262 23.121533 30.29585" y="-0.6875">Novel()</tspan>
       <tspan style="font: oblique 4.9px 'DejaVu Sans'" x="19.980078" y="0.4609375">τ</tspan>
       <tspan style="font: oblique 7px 'DejaVu Sans'" x="25.85249" y="-0.6875">g</tspan>
      </text>
     </g>
    </g>
   </g>
   <g id="patch_28">
    <path d="M 212.590609 138.727559 
L 212.590609 30.217323 
" style="fill: none; stroke: #000000; stroke-width: 0.8; stroke-linejoin: miter; stroke-linecap: square"/>
   </g>
   <g id="patch_29">
    <path d="M 212.590609 138.727559 
L 342.275648 138.727559 
" style="fill: none; stroke: #000000; stroke-width: 0.8; stroke-linejoin: miter; stroke-linecap: square"/>
   </g>
   <g id="text_26">
    <text style="font: 8px 'sans-serif'; text-anchor: middle" x="277.433129" y="24.217323" transform="rotate(-0, 277.433129, 24.217323)">Novel basin discovery</text>
   </g>
  </g>
  <g id="axes_3">
   <g id="patch_30">
    <path d="M 386.368562 138.727559 
L 516.053601 138.727559 
L 516.053601 30.217323 
L 386.368562 30.217323 
z
" style="fill: #ffffff"/>
   </g>
   <g id="matplotlib.axis_5">
    <g id="xtick_11">
     <g id="line2d_32">
      <g>
       <use xlink:href="#m9dfa40efad" x="391.725001" y="138.727559" style="stroke: #000000; stroke-width: 0.8"/>
      </g>
     </g>
     <g id="text_27">
      <text style="font: 7px 'sans-serif'; text-anchor: middle" x="391.725001" y="150.238028" transform="rotate(-0, 391.725001, 150.238028)">0</text>
     </g>
    </g>
    <g id="xtick_12">
     <g id="line2d_33">
      <g>
       <use xlink:href="#m9dfa40efad" x="418.641779" y="138.727559" style="stroke: #000000; stroke-width: 0.8"/>
      </g>
     </g>
     <g id="text_28">
      <text style="font: 7px 'sans-serif'; text-anchor: middle" x="418.641779" y="150.238028" transform="rotate(-0, 418.641779, 150.238028)">50</text>
     </g>
    </g>
    <g id="xtick_13">
     <g id="line2d_34">
      <g>
       <use xlink:href="#m9dfa40efad" x="445.558558" y="138.727559" style="stroke: #000000; stroke-width: 0.8"/>
      </g>
     </g>
     <g id="text_29">
      <text style="font: 7px 'sans-serif'; text-anchor: middle" x="445.558558" y="150.238028" transform="rotate(-0, 445.558558, 150.238028)">100</text>
     </g>
    </g>
    <g id="xtick_14">
     <g id="line2d_35">
      <g>
       <use xlink:href="#m9dfa40efad" x="472.475337" y="138.727559" style="stroke: #000000; stroke-width: 0.8"/>
      </g>
     </g>
     <g id="text_30">
      <text style="font: 7px 'sans-serif'; text-anchor: middle" x="472.475337" y="150.238028" transform="rotate(-0, 472.475337, 150.238028)">150</text>
     </g>
    </g>
    <g id="xtick_15">
     <g id="line2d_36">
      <g>
       <use xlink:href="#m9dfa40efad" x="499.392115" y="138.727559" style="stroke: #000000; stroke-width: 0.8"/>
      </g>
     </g>
     <g id="text_31">
      <text style="font: 7px 'sans-serif'; text-anchor: middle" x="499.392115" y="150.238028" transform="rotate(-0, 499.392115, 150.238028)">200</text>
     </g>
    </g>
    <g id="text_32">
     <text style="font: 7px 'sans-serif'; text-anchor: middle" x="451.211081" y="160.639747" transform="rotate(-0, 451.211081, 160.639747)">Evaluation step</text>
    </g>
   </g>
   <g id="matplotlib.axis_6">
    <g id="ytick_11">
     <g id="line2d_37">
      <path d="M 386.368562 136.781385 
L 516.053601 136.781385 
" clip-path="url(#p849153621c)" style="fill: none; stroke-dasharray: 0.8,1.32; stroke-dashoffset: 0; stroke: #b0b0b0; stroke-opacity: 0.2; stroke-width: 0.8"/>
     </g>
     <g id="line2d_38">
      <g>
       <use xlink:href="#ma96f5fce53" x="386.368562" y="136.781385" style="stroke: #000000; stroke-width: 0.8"/>
      </g>
     </g>
     <g id="text_33">
      <text style="font: 7px 'sans-serif'; text-anchor: end" x="379.868562" y="139.28662" transform="rotate(-0, 379.868562, 139.28662)">0</text>
     </g>
    </g>
    <g id="ytick_12">
     <g id="line2d_39">
      <path d="M 386.368562 106.920289 
L 516.053601 106.920289 
" clip-path="url(#p849153621c)" style="fill: none; stroke-dasharray: 0.8,1.32; stroke-dashoffset: 0; stroke: #b0b0b0; stroke-opacity: 0.2; stroke-width: 0.8"/>
     </g>
     <g id="line2d_40">
      <g>
       <use xlink:href="#ma96f5fce53" x="386.368562" y="106.920289" style="stroke: #000000; stroke-width: 0.8"/>
      </g>
     </g>
     <g id="text_34">
      <text style="font: 7px 'sans-serif'; text-anchor: end" x="379.868562" y="109.425523" transform="rotate(-0, 379.868562, 109.425523)">10</text>
     </g>
    </g>
    <g id="ytick_13">
     <g id="line2d_41">
      <path d="M 386.368562 77.059192 
L 516.053601 77.059192 
" clip-path="url(#p849153621c)" style="fill: none; stroke-dasharray: 0.8,1.32; stroke-dashoffset: 0; stroke: #b0b0b0; stroke-opacity: 0.2; stroke-width: 0.8"/>
     </g>
     <g id="line2d_42">
      <g>
       <use xlink:href="#ma96f5fce53" x="386.368562" y="77.059192" style="stroke: #000000; stroke-width: 0.8"/>
      </g>
     </g>
     <g id="text_35">
      <text style="font: 7px 'sans-serif'; text-anchor: end" x="379.868562" y="79.564427" transform="rotate(-0, 379.868562, 79.564427)">20</text>
     </g>
    </g>
    <g id="ytick_14">
     <g id="line2d_43">
      <path d="M 386.368562 47.198096 
L 516.053601 47.198096 
" clip-path="url(#p849153621c)" style="fill: none; stroke-dasharray: 0.8,1.32; stroke-dashoffset: 0; stroke: #b0b0b0; stroke-opacity: 0.2; stroke-width: 0.8"/>
     </g>
     <g id="line2d_44">
      <g>
       <use xlink:href="#ma96f5fce53" x="386.368562" y="47.198096" style="stroke: #000000; stroke-width: 0.8"/>
      </g>
     </g>
     <g id="text_36">
      <text style="font: 7px 'sans-serif'; text-anchor: end" x="379.868562" y="49.70333" transform="rotate(-0, 379.868562, 49.70333)">30</text>
     </g>
    </g>
    <g id="text_37">
     <!-- $N_{\mathrm{eff}}(t)$ -->
     <g transform="translate(366.691999 94.552441)rotate(-90)">
      <text>
       <tspan style="font: oblique 7px 'DejaVu Sans'" x="0 14.623437" y="-0.6875">Nt</tspan>
       <tspan style="font: 4.9px 'DejaVu Sans'" x="5.236328 8.250977 9.976025" y="0.4609375">eff</tspan>
       <tspan style="font: 7px 'DejaVu Sans'" x="11.89248 17.368066" y="-0.6875">()</tspan>
      </text>
     </g>
    </g>
   </g>
   <g id="line2d_45">
    <path d="M 392.263336 133.795276 
L 397.108356 106.920289 
L 397.646692 107.823576 
L 398.185028 108.340464 
L 398.723363 108.590275 
L 399.800034 102.835666 
L 400.33837 102.997411 
L 400.876705 103.015495 
L 401.415041 100.210172 
L 401.953377 100.159968 
L 403.030048 94.581827 
L 404.106719 96.262164 
L 404.645054 93.560531 
L 405.18339 93.317889 
L 405.721726 90.629077 
L 406.260061 90.367122 
L 406.798397 87.689393 
L 407.875068 88.796569 
L 408.413403 88.401047 
L 408.951739 85.8174 
L 410.02841 87.556196 
L 410.566746 87.058355 
L 411.105081 87.268597 
L 411.643417 86.72673 
L 412.181752 86.864028 
L 412.720088 86.287392 
L 414.87343 76.607984 
L 415.411766 76.799226 
L 416.488437 71.898049 
L 417.026773 71.378961 
L 417.565108 72.363264 
L 418.103444 69.939076 
L 418.641779 70.879448 
L 420.256786 69.137341 
L 420.795122 69.624073 
L 421.871793 68.394729 
L 422.410128 68.402553 
L 422.948464 69.3191 
L 423.486799 68.669817 
L 424.025135 69.509834 
L 425.640142 69.206014 
L 426.178477 69.700719 
L 427.255148 69.38923 
L 427.793484 67.263582 
L 428.33182 67.452285 
L 428.870155 68.240416 
L 429.408491 68.045959 
L 431.023497 68.372877 
L 431.561833 68.868069 
L 432.638504 68.968333 
L 433.17684 68.235004 
L 433.715175 68.485251 
L 434.253511 69.157063 
L 434.791846 69.151642 
L 436.406853 69.691027 
L 436.945189 70.135256 
L 437.483524 70.268956 
L 438.02186 68.430305 
L 438.560195 68.565741 
L 439.098531 66.72516 
L 439.636867 66.395257 
L 440.175202 66.683373 
L 440.713538 64.85003 
L 441.790209 65.409893 
L 442.328545 63.592193 
L 442.86688 63.864295 
L 443.405216 64.356632 
L 443.943551 64.596955 
L 444.481887 63.850432 
L 445.020222 62.064947 
L 445.558558 62.305849 
L 446.096894 61.559323 
L 447.173565 62.246066 
L 447.7119 61.49989 
L 448.250236 61.821045 
L 448.788571 62.317083 
L 449.865243 58.851466 
L 450.403578 59.169617 
L 451.480249 58.420424 
L 452.55692 59.197424 
L 453.633592 55.779679 
L 454.171927 55.402266 
L 454.710263 55.791825 
L 455.248598 54.08141 
L 455.786934 54.633557 
L 456.325269 53.889183 
L 456.863605 53.7392 
L 457.940276 54.626763 
L 459.016947 53.142159 
L 459.555283 52.975764 
L 460.093618 53.392943 
L 460.631954 52.652021 
L 461.17029 53.19382 
L 461.708625 51.549994 
L 462.246961 51.538308 
L 462.785296 52.004163 
L 463.323632 50.369209 
L 463.861967 50.833479 
L 464.938639 50.025902 
L 465.476974 49.997282 
L 466.01531 50.434287 
L 466.553645 50.02524 
L 467.091981 50.564604 
L 467.630316 50.638594 
L 468.168652 51.098851 
L 468.706988 50.366921 
L 469.245323 50.815735 
L 470.321994 50.38198 
L 470.86033 50.429782 
L 471.398665 50.849795 
L 472.475337 47.765963 
L 473.013672 47.914213 
L 473.552008 48.389209 
L 474.090343 47.966572 
L 474.628679 46.430252 
L 475.167014 46.902089 
L 476.243686 46.73782 
L 476.782021 46.861808 
L 477.320357 47.302531 
L 477.858692 46.580606 
L 478.397028 46.773091 
L 478.935363 47.242401 
L 479.473699 47.000025 
L 480.012035 46.281591 
L 480.55037 46.737834 
L 481.627041 46.735362 
L 482.165377 46.895763 
L 482.703712 47.321889 
L 483.242048 46.887488 
L 483.780384 47.10036 
L 484.318719 47.547733 
L 484.857055 47.418122 
L 485.39539 46.981596 
L 486.472061 44.119284 
L 487.010397 44.570566 
L 488.087068 44.693235 
L 489.163739 45.130738 
L 489.702075 45.581188 
L 490.24041 45.539168 
L 490.778746 45.269344 
L 491.855417 43.869777 
L 492.393753 42.472783 
L 492.932088 42.919574 
L 493.470424 41.52309 
L 494.008759 41.639532 
L 494.547095 41.919436 
L 495.085431 42.384809 
L 495.623766 42.41623 
L 496.162102 42.265289 
L 497.238773 41.384862 
L 497.777108 40.011141 
L 498.315444 39.314109 
L 498.85378 39.771191 
L 499.392115 39.07573 
L 499.930451 39.381107 
L 500.468786 39.853591 
L 501.007122 39.941129 
L 501.545457 39.877875 
L 502.622129 39.317493 
L 503.160464 38.628351 
L 503.6988 38.187074 
L 504.237135 36.836795 
L 505.313806 37.618007 
L 505.852142 36.275237 
L 506.390478 36.755088 
L 506.928813 36.889292 
L 507.467149 36.895158 
L 508.005484 36.728131 
L 508.54382 36.04361 
L 509.082155 35.876359 
L 509.620491 35.434437 
L 510.158827 35.149606 
L 510.158827 35.149606 
" clip-path="url(#p849153621c)" style="fill: none; stroke: #54a24b; stroke-width: 1.1; stroke-linecap: square"/>
   </g>
   <g id="patch_31">
    <path d="M 386.368562 138.727559 
L 386.368562 30.217323 
" style="fill: none; stroke: #000000; stroke-width: 0.8; stroke-linejoin: miter; stroke-linecap: square"/>
   </g>
   <g id="patch_32">
    <path d="M 386.368562 138.727559 
L 516.053601 138.727559 
" style="fill: none; stroke: #000000; stroke-width: 0.8; stroke-linejoin: miter; stroke-linecap: square"/>
   </g>
   <g id="text_38">
    <text style="font: 8px 'sans-serif'; text-anchor: middle" x="451.211081" y="24.217323" transform="rotate(-0, 451.211081, 24.217323)">Cumulative exploration</text>
   </g>
   <g id="legend_1">
    <g id="line2d_46">
     <path d="M 391.768562 37.964823 
L 397.768562 37.964823 
L 403.768562 37.964823 
" style="fill: none; stroke: #54a24b; stroke-width: 1.1; stroke-linecap: square"/>
    </g>
    <g id="text_39">
     <!-- $N_{\mathrm{eff}}(t)$ -->
     <g transform="translate(408.568562 40.064823)">
      <text>
       <tspan style="font: oblique 6px 'DejaVu Sans'" x="0 12.534375" y="-0.453125">Nt</tspan>
       <tspan style="font: 4.2px 'DejaVu Sans'" x="4.488281 7.072266 8.550879" y="0.53125">eff</tspan>
       <tspan style="font: 6px 'DejaVu Sans'" x="10.193555 14.886914" y="-0.453125">()</tspan>
      </text>
     </g>
    </g>
    <g id="line2d_47">
     <path d="M 391.768562 46.45201 
L 397.768562 46.45201 
L 403.768562 46.45201 
" style="fill: none; stroke-dasharray: 3.7,1.6; stroke-dashoffset: 0; stroke: #b279a2"/>
    </g>
    <g id="text_40">
     <text style="font: 6px 'sans-serif'; text-anchor: start" x="408.568562" y="48.55201" transform="rotate(-0, 408.568562, 48.55201)">Cumulative basins</text>
    </g>
   </g>
  </g>
  <g id="axes_4">
   <g id="matplotlib.axis_7">
    <g id="ytick_15">
     <g id="line2d_48">
      <defs>
       <path id="m147900c44d" d="M 0 0 
L 3 0 
" style="stroke: #000000; stroke-width: 0.8"/>
      </defs>
      <g>
       <use xlink:href="#m147900c44d" x="516.053601" y="135.850394" style="stroke: #000000; stroke-width: 0.8"/>
      </g>
     </g>
     <g id="text_41">
      <text style="font: 7px 'sans-serif'; text-anchor: start" x="522.553601" y="138.355628" transform="rotate(-0, 522.553601, 138.355628)">0</text>
     </g>
    </g>
    <g id="ytick_16">
     <g id="line2d_49">
      <g>
       <use xlink:href="#m147900c44d" x="516.053601" y="115.299213" style="stroke: #000000; stroke-width: 0.8"/>
      </g>
     </g>
     <g id="text_42">
      <text style="font: 7px 'sans-serif'; text-anchor: start" x="522.553601" y="117.804447" transform="rotate(-0, 522.553601, 117.804447)">10</text>
     </g>
    </g>
    <g id="ytick_17">
     <g id="line2d_50">
      <g>
       <use xlink:href="#m147900c44d" x="516.053601" y="94.748031" style="stroke: #000000; stroke-width: 0.8"/>
      </g>
     </g>
     <g id="text_43">
      <text style="font: 7px 'sans-serif'; text-anchor: start" x="522.553601" y="97.253266" transform="rotate(-0, 522.553601, 97.253266)">20</text>
     </g>
    </g>
    <g id="ytick_18">
     <g id="line2d_51">
      <g>
       <use xlink:href="#m147900c44d" x="516.053601" y="74.19685" style="stroke: #000000; stroke-width: 0.8"/>
      </g>
     </g>
     <g id="text_44">
      <text style="font: 7px 'sans-serif'; text-anchor: start" x="522.553601" y="76.702085" transform="rotate(-0, 522.553601, 76.702085)">30</text>
     </g>
    </g>
    <g id="ytick_19">
     <g id="line2d_52">
      <g>
       <use xlink:href="#m147900c44d" x="516.053601" y="53.645669" style="stroke: #000000; stroke-width: 0.8"/>
      </g>
     </g>
     <g id="text_45">
      <text style="font: 7px 'sans-serif'; text-anchor: start" x="522.553601" y="56.150904" transform="rotate(-0, 522.553601, 56.150904)">40</text>
     </g>
    </g>
    <g id="ytick_20">
     <g id="line2d_53">
      <g>
       <use xlink:href="#m147900c44d" x="516.053601" y="33.094488" style="stroke: #000000; stroke-width: 0.8"/>
      </g>
     </g>
     <g id="text_46">
      <text style="font: 7px 'sans-serif'; text-anchor: start" x="522.553601" y="35.599723" transform="rotate(-0, 522.553601, 35.599723)">50</text>
     </g>
    </g>
    <g id="text_47">
     <text style="font: 7px 'sans-serif'; text-anchor: middle" x="539.349382" y="84.472441" transform="rotate(-90, 539.349382, 84.472441)">Unique basins</text>
    </g>
   </g>
   <g id="line2d_54">
    <path d="M 392.263336 133.795276 
L 397.108356 115.299213 
L 398.723363 115.299213 
L 399.800034 111.188976 
L 400.876705 111.188976 
L 401.415041 109.133858 
L 401.953377 109.133858 
L 403.030048 105.023622 
L 404.106719 105.023622 
L 404.645054 102.968504 
L 405.18339 102.968504 
L 405.721726 100.913386 
L 406.260061 100.913386 
L 406.798397 98.858268 
L 408.413403 98.858268 
L 408.951739 96.80315 
L 412.720088 96.80315 
L 414.87343 88.582677 
L 415.411766 88.582677 
L 416.488437 84.472441 
L 417.565108 84.472441 
L 418.103444 82.417323 
L 427.255148 82.417323 
L 427.793484 80.362205 
L 437.483524 80.362205 
L 438.02186 78.307087 
L 438.560195 78.307087 
L 439.098531 76.251969 
L 440.175202 76.251969 
L 440.713538 74.19685 
L 441.790209 74.19685 
L 442.328545 72.141732 
L 444.481887 72.141732 
L 445.020222 70.086614 
L 448.788571 70.086614 
L 449.865243 65.976378 
L 452.55692 65.976378 
L 453.633592 61.866142 
L 454.710263 61.866142 
L 455.248598 59.811024 
L 461.17029 59.811024 
L 461.708625 57.755906 
L 462.785296 57.755906 
L 463.323632 55.700787 
L 471.398665 55.700787 
L 472.475337 51.590551 
L 474.090343 51.590551 
L 474.628679 49.535433 
L 485.39539 49.535433 
L 486.472061 45.425197 
L 491.855417 45.425197 
L 492.393753 43.370079 
L 492.932088 43.370079 
L 493.470424 41.314961 
L 497.238773 41.314961 
L 497.777108 39.259843 
L 503.6988 39.259843 
L 504.237135 37.204724 
L 505.313806 37.204724 
L 505.852142 35.149606 
L 510.158827 35.149606 
L 510.158827 35.149606 
" clip-path="url(#p849153621c)" style="fill: none; stroke-dasharray: 3.7,1.6; stroke-dashoffset: 0; stroke: #b279a2"/>
   </g>
   <g id="patch_33">
    <path d="M 386.368562 138.727559 
L 386.368562 30.217323 
" style="fill: none; stroke: #000000; stroke-width: 0.8; stroke-linejoin: miter; stroke-linecap: square"/>
   </g>
   <g id="patch_34">
    <path d="M 386.368562 138.727559 
L 516.053601 138.727559 
" style="fill: none; stroke: #000000; stroke-width: 0.8; stroke-linejoin: miter; stroke-linecap: square"/>
   </g>
  </g>
  <g id="text_48">
   <text style="font: 9px 'sans-serif'; text-anchor: middle" x="261.870924" y="13.751719" transform="rotate(-0, 261.870924, 13.751719)">Synthetic SBM-1000 (State soft): diversity and basin exploration</text>
  </g>
 </g>
 <defs>
  <clipPath id="pd95825807e">
   <rect x="38.812656" y="30.217323" width="129.685039" height="108.510236"/>
  </clipPath>
  <clipPath id="pd7647f8159">
   <rect x="212.590609" y="30.217323" width="129.685039" height="108.510236"/>
  </clipPath>
  <clipPath id="p849153621c">
   <rect x="386.368562" y="30.217323" width="129.685039" height="108.510236"/>
  </clipPath>
 </defs>
</svg>
