<?xml version="1.0" encoding="utf-8" standalone="no"?>
<!DOCTYPE svg PUBLIC "-//W3C//DTD SVG 1.1//EN"
  "http://www.w3.org/Graphics/SVG/1.1/DTD/svg11.dtd">
<svg xmlns:xlink="http://www.w3.org/1999/xlink" width="544.047976pt" height="169.230997pt" viewBox="0 0 544.047976 169.230997" xmlns="http://www.w3.org/2000/svg" version="1.1">
 <metadata>
  <rdf:RDF xmlns:dc="http://purl.org/dc/elements/1.1/" xmlns:cc="http://creativecommons.org/ns#" xmlns:rdf="http://www.w3.org/1999/02/22-rdf-syntax-ns#">
   <cc:Work>
    <dc:type rdf:resource="http://purl.org/dc/dcmitype/StillImage"/>
    <dc:date>2026-08-06T16:02:19.309984</dc:date>
    <dc:format>image/svg+xml</dc:format>
    <dc:creator>
     <cc:Agent>
      <dc:title>Matplotlib v3.5.3, https://matplotlib.org/</dc:title>
     </cc:Agent>
    </dc:creator>
   </cc:Work>
  </rdf:RDF>
 </metadata>
 <defs>
  <style type="text/css">*{stroke-linejoin: round; stroke-linecap: butt}</style>
 </defs>
 <g id="figure_1">
  <g id="patch_1">
   <path d="M 0 169.230997 
L 544.047976 169.230997 
L 544.047976 0 
L 0 0 
z
" style="fill: #ffffff"/>
  </g>
  <g id="axes_1">
   <g id="patch_2">
    <path d="M 34.92 138.727559 
L 164.605039 138.727559 
L 164.605039 30.217323 
L 34.92 30.217323 
z
" style="fill: #ffffff"/>
   </g>
   <g id="matplotlib.axis_1">
    <g id="xtick_1">
     <g id="line2d_1">
      <defs>
       <path id="m9f99d7dd32" d="M 0 0 
L 0 3 
" style="stroke: #000000; stroke-width: 0.8"/>
      </defs>
      <g>
       <use xlink:href="#m9f99d7dd32" x="38.073019" y="138.727559" style="stroke: #000000; stroke-width: 0.8"/>
      </g>
     </g>
     <g id="text_1">
      <text style="font: 7px 'sans-serif'; text-anchor: middle" x="38.073019" y="150.238028" transform="rotate(-0, 38.073019, 150.238028)">0</text>
     </g>
    </g>
    <g id="xtick_2">
     <g id="line2d_2">
      <g>
       <use xlink:href="#m9f99d7dd32" x="65.490575" y="138.727559" style="stroke: #000000; stroke-width: 0.8"/>
      </g>
     </g>
     <g id="text_2">
      <text style="font: 7px 'sans-serif'; text-anchor: middle" x="65.490575" y="150.238028" transform="rotate(-0, 65.490575, 150.238028)">10</text>
     </g>
    </g>
    <g id="xtick_3">
     <g id="line2d_3">
      <g>
       <use xlink:href="#m9f99d7dd32" x="92.908131" y="138.727559" style="stroke: #000000; stroke-width: 0.8"/>
      </g>
     </g>
     <g id="text_3">
      <text style="font: 7px 'sans-serif'; text-anchor: middle" x="92.908131" y="150.238028" transform="rotate(-0, 92.908131, 150.238028)">20</text>
     </g>
    </g>
    <g id="xtick_4">
     <g id="line2d_4">
      <g>
       <use xlink:href="#m9f99d7dd32" x="120.325687" y="138.727559" style="stroke: #000000; stroke-width: 0.8"/>
      </g>
     </g>
     <g id="text_4">
      <text style="font: 7px 'sans-serif'; text-anchor: middle" x="120.325687" y="150.238028" transform="rotate(-0, 120.325687, 150.238028)">30</text>
     </g>
    </g>
    <g id="xtick_5">
     <g id="line2d_5">
      <g>
       <use xlink:href="#m9f99d7dd32" x="147.743242" y="138.727559" style="stroke: #000000; stroke-width: 0.8"/>
      </g>
     </g>
     <g id="text_5">
      <text style="font: 7px 'sans-serif'; text-anchor: middle" x="147.743242" y="150.238028" transform="rotate(-0, 147.743242, 150.238028)">40</text>
     </g>
    </g>
    <g id="text_6">
     <text style="font: 7px 'sans-serif'; text-anchor: middle" x="99.76252" y="160.639747" transform="rotate(-0, 99.76252, 160.639747)">Generation</text>
    </g>
   </g>
   <g id="matplotlib.axis_2">
    <g id="ytick_1">
     <g id="line2d_6">
      <path d="M 34.92 128.830817 
L 164.605039 128.830817 
" clip-path="url(#p0a4509e97f)" style="fill: none; stroke-dasharray: 0.8,1.32; stroke-dashoffset: 0; stroke: #b0b0b0; stroke-opacity: 0.25; stroke-width: 0.8"/>
     </g>
     <g id="line2d_7">
      <defs>
       <path id="m802b8d2a18" d="M 0 0 
L -3 0 
" style="stroke: #000000; stroke-width: 0.8"/>
      </defs>
      <g>
       <use xlink:href="#m802b8d2a18" x="34.92" y="128.830817" style="stroke: #000000; stroke-width: 0.8"/>
      </g>
     </g>
     <g id="text_7">
      <text style="font: 7px 'sans-serif'; text-anchor: end" x="28.42" y="131.336051" transform="rotate(-0, 28.42, 131.336051)">0.4</text>
     </g>
    </g>
    <g id="ytick_2">
     <g id="line2d_8">
      <path d="M 34.92 109.553969 
L 164.605039 109.553969 
" clip-path="url(#p0a4509e97f)" style="fill: none; stroke-dasharray: 0.8,1.32; stroke-dashoffset: 0; stroke: #b0b0b0; stroke-opacity: 0.25; stroke-width: 0.8"/>
     </g>
     <g id="line2d_9">
      <g>
       <use xlink:href="#m802b8d2a18" x="34.92" y="109.553969" style="stroke: #000000; stroke-width: 0.8"/>
      </g>
     </g>
     <g id="text_8">
      <text style="font: 7px 'sans-serif'; text-anchor: end" x="28.42" y="112.059203" transform="rotate(-0, 28.42, 112.059203)">0.5</text>
     </g>
    </g>
    <g id="ytick_3">
     <g id="line2d_10">
      <path d="M 34.92 90.27712 
L 164.605039 90.27712 
" clip-path="url(#p0a4509e97f)" style="fill: none; stroke-dasharray: 0.8,1.32; stroke-dashoffset: 0; stroke: #b0b0b0; stroke-opacity: 0.25; stroke-width: 0.8"/>
     </g>
     <g id="line2d_11">
      <g>
       <use xlink:href="#m802b8d2a18" x="34.92" y="90.27712" style="stroke: #000000; stroke-width: 0.8"/>
      </g>
     </g>
     <g id="text_9">
      <text style="font: 7px 'sans-serif'; text-anchor: end" x="28.42" y="92.782355" transform="rotate(-0, 28.42, 92.782355)">0.6</text>
     </g>
    </g>
    <g id="ytick_4">
     <g id="line2d_12">
      <path d="M 34.92 71.000272 
L 164.605039 71.000272 
" clip-path="url(#p0a4509e97f)" style="fill: none; stroke-dasharray: 0.8,1.32; stroke-dashoffset: 0; stroke: #b0b0b0; stroke-opacity: 0.25; stroke-width: 0.8"/>
     </g>
     <g id="line2d_13">
      <g>
       <use xlink:href="#m802b8d2a18" x="34.92" y="71.000272" style="stroke: #000000; stroke-width: 0.8"/>
      </g>
     </g>
     <g id="text_10">
      <text style="font: 7px 'sans-serif'; text-anchor: end" x="28.42" y="73.505506" transform="rotate(-0, 28.42, 73.505506)">0.7</text>
     </g>
    </g>
    <g id="ytick_5">
     <g id="line2d_14">
      <path d="M 34.92 51.723424 
L 164.605039 51.723424 
" clip-path="url(#p0a4509e97f)" style="fill: none; stroke-dasharray: 0.8,1.32; stroke-dashoffset: 0; stroke: #b0b0b0; stroke-opacity: 0.25; stroke-width: 0.8"/>
     </g>
     <g id="line2d_15">
      <g>
       <use xlink:href="#m802b8d2a18" x="34.92" y="51.723424" style="stroke: #000000; stroke-width: 0.8"/>
      </g>
     </g>
     <g id="text_11">
      <text style="font: 7px 'sans-serif'; text-anchor: end" x="28.42" y="54.228658" transform="rotate(-0, 28.42, 54.228658)">0.8</text>
     </g>
    </g>
    <g id="ytick_6">
     <g id="line2d_16">
      <path d="M 34.92 32.446575 
L 164.605039 32.446575 
" clip-path="url(#p0a4509e97f)" style="fill: none; stroke-dasharray: 0.8,1.32; stroke-dashoffset: 0; stroke: #b0b0b0; stroke-opacity: 0.25; stroke-width: 0.8"/>
     </g>
     <g id="line2d_17">
      <g>
       <use xlink:href="#m802b8d2a18" x="34.92" y="32.446575" style="stroke: #000000; stroke-width: 0.8"/>
      </g>
     </g>
     <g id="text_12">
      <text style="font: 7px 'sans-serif'; text-anchor: end" x="28.42" y="34.95181" transform="rotate(-0, 28.42, 34.95181)">0.9</text>
     </g>
    </g>
    <g id="text_13">
     <!-- $\mathrm{Div}_{\mathrm{pair}}(g)$ -->
     <g transform="translate(12.52 100.047441)rotate(-90)">
      <text>
       <tspan style="font: 7px 'DejaVu Sans'" x="0 5.390137 7.334961 21.224902 28.399219" y="-0.6875">Div()</tspan>
       <tspan style="font: 4.9px 'DejaVu Sans'" x="11.544531 14.654883 17.657568 19.018945" y="0.4609375">pair</tspan>
       <tspan style="font: oblique 7px 'DejaVu Sans'" x="23.955859" y="-0.6875">g</tspan>
      </text>
     </g>
    </g>
   </g>
   <g id="line2d_18">
    <path d="M 40.814775 42.550604 
L 43.55653 36.970701 
L 46.298286 36.801367 
L 49.040041 35.149606 
L 51.781797 36.616409 
L 54.523552 40.017916 
L 57.265308 36.918858 
L 60.007064 35.552167 
L 62.748819 47.435899 
L 65.490575 47.557427 
L 68.23233 47.386284 
L 70.974086 46.961831 
L 73.715842 46.961831 
L 76.457597 56.431201 
L 79.199353 69.456086 
L 81.941108 75.407024 
L 84.682864 81.448895 
L 87.42462 94.359886 
L 90.166375 84.358973 
L 92.908131 71.749788 
L 95.649886 81.377983 
L 98.391642 81.619246 
L 101.133397 75.030511 
L 103.875153 105.564921 
L 106.616909 130.305071 
L 109.358664 130.305071 
L 112.10042 131.924965 
L 114.842175 131.924965 
L 117.583931 131.975251 
L 120.325687 133.322158 
L 123.067442 133.155681 
L 125.809198 131.529652 
L 128.550953 131.529652 
L 131.292709 131.529652 
L 134.034465 129.632027 
L 136.77622 129.632027 
L 139.517976 131.581311 
L 142.259731 131.429938 
L 145.001487 133.795276 
L 147.743242 133.795276 
L 150.484998 133.795276 
L 153.226754 133.795276 
L 155.968509 133.795276 
L 158.710265 133.795276 
" clip-path="url(#p0a4509e97f)" style="fill: none; stroke: #4c78a8; stroke-width: 1.2; stroke-linecap: square"/>
   </g>
   <g id="patch_3">
    <path d="M 34.92 138.727559 
L 34.92 30.217323 
" style="fill: none; stroke: #000000; stroke-width: 0.8; stroke-linejoin: miter; stroke-linecap: square"/>
   </g>
   <g id="patch_4">
    <path d="M 34.92 138.727559 
L 164.605039 138.727559 
" style="fill: none; stroke: #000000; stroke-width: 0.8; stroke-linejoin: miter; stroke-linecap: square"/>
   </g>
   <g id="text_14">
    <text style="font: 8px 'sans-serif'; text-anchor: middle" x="99.76252" y="24.217323" transform="rotate(-0, 99.76252, 24.217323)">Population diversity</text>
   </g>
  </g>
  <g id="axes_2">
   <g id="patch_5">
    <path d="M 208.697953 138.727559 
L 338.382992 138.727559 
L 338.382992 30.217323 
L 208.697953 30.217323 
z
" style="fill: #ffffff"/>
   </g>
   <g id="patch_6">
    <path d="M 214.592727 138.727559 
L 216.613793 138.727559 
L 216.613793 35.384477 
L 214.592727 35.384477 
z
" clip-path="url(#p6d7b5907c4)" style="fill: #e45756; opacity: 0.85"/>
   </g>
   <g id="patch_7">
    <path d="M 217.287481 138.727559 
L 219.308547 138.727559 
L 219.308547 97.390326 
L 217.287481 97.390326 
z
" clip-path="url(#p6d7b5907c4)" style="fill: #e45756; opacity: 0.85"/>
   </g>
   <g id="patch_8">
    <path d="M 219.982235 138.727559 
L 222.003301 138.727559 
L 222.003301 97.390326 
L 219.982235 97.390326 
z
" clip-path="url(#p6d7b5907c4)" style="fill: #e45756; opacity: 0.85"/>
   </g>
   <g id="patch_9">
    <path d="M 222.676989 138.727559 
L 224.698055 138.727559 
L 224.698055 107.724634 
L 222.676989 107.724634 
z
" clip-path="url(#p6d7b5907c4)" style="fill: #e45756; opacity: 0.85"/>
   </g>
   <g id="patch_10">
    <path d="M 225.371744 138.727559 
L 227.392809 138.727559 
L 227.392809 128.393251 
L 225.371744 128.393251 
z
" clip-path="url(#p6d7b5907c4)" style="fill: #e45756; opacity: 0.85"/>
   </g>
   <g id="patch_11">
    <path d="M 228.066498 138.727559 
L 230.087563 138.727559 
L 230.087563 118.058943 
L 228.066498 118.058943 
z
" clip-path="url(#p6d7b5907c4)" style="fill: #e45756; opacity: 0.85"/>
   </g>
   <g id="patch_12">
    <path d="M 230.761252 138.727559 
L 232.782317 138.727559 
L 232.782317 128.393251 
L 230.761252 128.393251 
z
" clip-path="url(#p6d7b5907c4)" style="fill: #e45756; opacity: 0.85"/>
   </g>
   <g id="patch_13">
    <path d="M 233.456006 138.727559 
L 235.477071 138.727559 
L 235.477071 128.393251 
L 233.456006 128.393251 
z
" clip-path="url(#p6d7b5907c4)" style="fill: #e45756; opacity: 0.85"/>
   </g>
   <g id="patch_14">
    <path d="M 236.15076 138.727559 
L 238.171825 138.727559 
L 238.171825 128.393251 
L 236.15076 128.393251 
z
" clip-path="url(#p6d7b5907c4)" style="fill: #e45756; opacity: 0.85"/>
   </g>
   <g id="patch_15">
    <path d="M 238.845514 138.727559 
L 240.866579 138.727559 
L 240.866579 118.058943 
L 238.845514 118.058943 
z
" clip-path="url(#p6d7b5907c4)" style="fill: #e45756; opacity: 0.85"/>
   </g>
   <g id="patch_16">
    <path d="M 241.540268 138.727559 
L 243.561333 138.727559 
L 243.561333 118.058943 
L 241.540268 118.058943 
z
" clip-path="url(#p6d7b5907c4)" style="fill: #e45756; opacity: 0.85"/>
   </g>
   <g id="patch_17">
    <path d="M 244.235022 138.727559 
L 246.256088 138.727559 
L 246.256088 138.727559 
L 244.235022 138.727559 
z
" clip-path="url(#p6d7b5907c4)" style="fill: #e45756; opacity: 0.85"/>
   </g>
   <g id="patch_18">
    <path d="M 246.929776 138.727559 
L 248.950842 138.727559 
L 248.950842 138.727559 
L 246.929776 138.727559 
z
" clip-path="url(#p6d7b5907c4)" style="fill: #e45756; opacity: 0.85"/>
   </g>
   <g id="patch_19">
    <path d="M 249.62453 138.727559 
L 251.645596 138.727559 
L 251.645596 138.727559 
L 249.62453 138.727559 
z
" clip-path="url(#p6d7b5907c4)" style="fill: #e45756; opacity: 0.85"/>
   </g>
   <g id="patch_20">
    <path d="M 252.319284 138.727559 
L 254.34035 138.727559 
L 254.34035 138.727559 
L 252.319284 138.727559 
z
" clip-path="url(#p6d7b5907c4)" style="fill: #e45756; opacity: 0.85"/>
   </g>
   <g id="patch_21">
    <path d="M 255.014038 138.727559 
L 257.035104 138.727559 
L 257.035104 128.393251 
L 255.014038 128.393251 
z
" clip-path="url(#p6d7b5907c4)" style="fill: #e45756; opacity: 0.85"/>
   </g>
   <g id="patch_22">
    <path d="M 257.708792 138.727559 
L 259.729858 138.727559 
L 259.729858 138.727559 
L 257.708792 138.727559 
z
" clip-path="url(#p6d7b5907c4)" style="fill: #e45756; opacity: 0.85"/>
   </g>
   <g id="patch_23">
    <path d="M 260.403546 138.727559 
L 262.424612 138.727559 
L 262.424612 128.393251 
L 260.403546 128.393251 
z
" clip-path="url(#p6d7b5907c4)" style="fill: #e45756; opacity: 0.85"/>
   </g>
   <g id="patch_24">
    <path d="M 263.0983 138.727559 
L 265.119366 138.727559 
L 265.119366 128.393251 
L 263.0983 128.393251 
z
" clip-path="url(#p6d7b5907c4)" style="fill: #e45756; opacity: 0.85"/>
   </g>
   <g id="patch_25">
    <path d="M 265.793055 138.727559 
L 267.81412 138.727559 
L 267.81412 128.393251 
L 265.793055 128.393251 
z
" clip-path="url(#p6d7b5907c4)" style="fill: #e45756; opacity: 0.85"/>
   </g>
   <g id="patch_26">
    <path d="M 268.487809 138.727559 
L 270.508874 138.727559 
L 270.508874 128.393251 
L 268.487809 128.393251 
z
" clip-path="url(#p6d7b5907c4)" style="fill: #e45756; opacity: 0.85"/>
   </g>
   <g id="patch_27">
    <path d="M 271.182563 138.727559 
L 273.203628 138.727559 
L 273.203628 138.727559 
L 271.182563 138.727559 
z
" clip-path="url(#p6d7b5907c4)" style="fill: #e45756; opacity: 0.85"/>
   </g>
   <g id="patch_28">
    <path d="M 273.877317 138.727559 
L 275.898382 138.727559 
L 275.898382 128.393251 
L 273.877317 128.393251 
z
" clip-path="url(#p6d7b5907c4)" style="fill: #e45756; opacity: 0.85"/>
   </g>
   <g id="patch_29">
    <path d="M 276.572071 138.727559 
L 278.593136 138.727559 
L 278.593136 128.393251 
L 276.572071 128.393251 
z
" clip-path="url(#p6d7b5907c4)" style="fill: #e45756; opacity: 0.85"/>
   </g>
   <g id="patch_30">
    <path d="M 279.266825 138.727559 
L 281.28789 138.727559 
L 281.28789 138.727559 
L 279.266825 138.727559 
z
" clip-path="url(#p6d7b5907c4)" style="fill: #e45756; opacity: 0.85"/>
   </g>
   <g id="patch_31">
    <path d="M 281.961579 138.727559 
L 283.982644 138.727559 
L 283.982644 138.727559 
L 281.961579 138.727559 
z
" clip-path="url(#p6d7b5907c4)" style="fill: #e45756; opacity: 0.85"/>
   </g>
   <g id="patch_32">
    <path d="M 284.656333 138.727559 
L 286.677399 138.727559 
L 286.677399 138.727559 
L 284.656333 138.727559 
z
" clip-path="url(#p6d7b5907c4)" style="fill: #e45756; opacity: 0.85"/>
   </g>
   <g id="patch_33">
    <path d="M 287.351087 138.727559 
L 289.372153 138.727559 
L 289.372153 138.727559 
L 287.351087 138.727559 
z
" clip-path="url(#p6d7b5907c4)" style="fill: #e45756; opacity: 0.85"/>
   </g>
   <g id="patch_34">
    <path d="M 290.045841 138.727559 
L 292.066907 138.727559 
L 292.066907 138.727559 
L 290.045841 138.727559 
z
" clip-path="url(#p6d7b5907c4)" style="fill: #e45756; opacity: 0.85"/>
   </g>
   <g id="patch_35">
    <path d="M 292.740595 138.727559 
L 294.761661 138.727559 
L 294.761661 138.727559 
L 292.740595 138.727559 
z
" clip-path="url(#p6d7b5907c4)" style="fill: #e45756; opacity: 0.85"/>
   </g>
   <g id="patch_36">
    <path d="M 295.435349 138.727559 
L 297.456415 138.727559 
L 297.456415 138.727559 
L 295.435349 138.727559 
z
" clip-path="url(#p6d7b5907c4)" style="fill: #e45756; opacity: 0.85"/>
   </g>
   <g id="patch_37">
    <path d="M 298.130103 138.727559 
L 300.151169 138.727559 
L 300.151169 138.727559 
L 298.130103 138.727559 
z
" clip-path="url(#p6d7b5907c4)" style="fill: #e45756; opacity: 0.85"/>
   </g>
   <g id="patch_38">
    <path d="M 300.824857 138.727559 
L 302.845923 138.727559 
L 302.845923 138.727559 
L 300.824857 138.727559 
z
" clip-path="url(#p6d7b5907c4)" style="fill: #e45756; opacity: 0.85"/>
   </g>
   <g id="patch_39">
    <path d="M 303.519611 138.727559 
L 305.540677 138.727559 
L 305.540677 138.727559 
L 303.519611 138.727559 
z
" clip-path="url(#p6d7b5907c4)" style="fill: #e45756; opacity: 0.85"/>
   </g>
   <g id="patch_40">
    <path d="M 306.214365 138.727559 
L 308.235431 138.727559 
L 308.235431 138.727559 
L 306.214365 138.727559 
z
" clip-path="url(#p6d7b5907c4)" style="fill: #e45756; opacity: 0.85"/>
   </g>
   <g id="patch_41">
    <path d="M 308.90912 138.727559 
L 310.930185 138.727559 
L 310.930185 138.727559 
L 308.90912 138.727559 
z
" clip-path="url(#p6d7b5907c4)" style="fill: #e45756; opacity: 0.85"/>
   </g>
   <g id="patch_42">
    <path d="M 311.603874 138.727559 
L 313.624939 138.727559 
L 313.624939 138.727559 
L 311.603874 138.727559 
z
" clip-path="url(#p6d7b5907c4)" style="fill: #e45756; opacity: 0.85"/>
   </g>
   <g id="patch_43">
    <path d="M 314.298628 138.727559 
L 316.319693 138.727559 
L 316.319693 138.727559 
L 314.298628 138.727559 
z
" clip-path="url(#p6d7b5907c4)" style="fill: #e45756; opacity: 0.85"/>
   </g>
   <g id="patch_44">
    <path d="M 316.993382 138.727559 
L 319.014447 138.727559 
L 319.014447 138.727559 
L 316.993382 138.727559 
z
" clip-path="url(#p6d7b5907c4)" style="fill: #e45756; opacity: 0.85"/>
   </g>
   <g id="patch_45">
    <path d="M 319.688136 138.727559 
L 321.709201 138.727559 
L 321.709201 138.727559 
L 319.688136 138.727559 
z
" clip-path="url(#p6d7b5907c4)" style="fill: #e45756; opacity: 0.85"/>
   </g>
   <g id="patch_46">
    <path d="M 322.38289 138.727559 
L 324.403955 138.727559 
L 324.403955 138.727559 
L 322.38289 138.727559 
z
" clip-path="url(#p6d7b5907c4)" style="fill: #e45756; opacity: 0.85"/>
   </g>
   <g id="patch_47">
    <path d="M 325.077644 138.727559 
L 327.098709 138.727559 
L 327.098709 138.727559 
L 325.077644 138.727559 
z
" clip-path="url(#p6d7b5907c4)" style="fill: #e45756; opacity: 0.85"/>
   </g>
   <g id="patch_48">
    <path d="M 327.772398 138.727559 
L 329.793464 138.727559 
L 329.793464 138.727559 
L 327.772398 138.727559 
z
" clip-path="url(#p6d7b5907c4)" style="fill: #e45756; opacity: 0.85"/>
   </g>
   <g id="patch_49">
    <path d="M 330.467152 138.727559 
L 332.488218 138.727559 
L 332.488218 138.727559 
L 330.467152 138.727559 
z
" clip-path="url(#p6d7b5907c4)" style="fill: #e45756; opacity: 0.85"/>
   </g>
   <g id="matplotlib.axis_3">
    <g id="xtick_6">
     <g id="line2d_19">
      <g>
       <use xlink:href="#m9f99d7dd32" x="212.908506" y="138.727559" style="stroke: #000000; stroke-width: 0.8"/>
      </g>
     </g>
     <g id="text_15">
      <text style="font: 7px 'sans-serif'; text-anchor: middle" x="212.908506" y="150.238028" transform="rotate(-0, 212.908506, 150.238028)">0</text>
     </g>
    </g>
    <g id="xtick_7">
     <g id="line2d_20">
      <g>
       <use xlink:href="#m9f99d7dd32" x="239.856047" y="138.727559" style="stroke: #000000; stroke-width: 0.8"/>
      </g>
     </g>
     <g id="text_16">
      <text style="font: 7px 'sans-serif'; text-anchor: middle" x="239.856047" y="150.238028" transform="rotate(-0, 239.856047, 150.238028)">10</text>
     </g>
    </g>
    <g id="xtick_8">
     <g id="line2d_21">
      <g>
       <use xlink:href="#m9f99d7dd32" x="266.803587" y="138.727559" style="stroke: #000000; stroke-width: 0.8"/>
      </g>
     </g>
     <g id="text_17">
      <text style="font: 7px 'sans-serif'; text-anchor: middle" x="266.803587" y="150.238028" transform="rotate(-0, 266.803587, 150.238028)">20</text>
     </g>
    </g>
    <g id="xtick_9">
     <g id="line2d_22">
      <g>
       <use xlink:href="#m9f99d7dd32" x="293.751128" y="138.727559" style="stroke: #000000; stroke-width: 0.8"/>
      </g>
     </g>
     <g id="text_18">
      <text style="font: 7px 'sans-serif'; text-anchor: middle" x="293.751128" y="150.238028" transform="rotate(-0, 293.751128, 150.238028)">30</text>
     </g>
    </g>
    <g id="xtick_10">
     <g id="line2d_23">
      <g>
       <use xlink:href="#m9f99d7dd32" x="320.698669" y="138.727559" style="stroke: #000000; stroke-width: 0.8"/>
      </g>
     </g>
     <g id="text_19">
      <text style="font: 7px 'sans-serif'; text-anchor: middle" x="320.698669" y="150.238028" transform="rotate(-0, 320.698669, 150.238028)">40</text>
     </g>
    </g>
    <g id="text_20">
     <text style="font: 7px 'sans-serif'; text-anchor: middle" x="273.540472" y="160.639747" transform="rotate(-0, 273.540472, 160.639747)">Generation</text>
    </g>
   </g>
   <g id="matplotlib.axis_4">
    <g id="ytick_7">
     <g id="line2d_24">
      <path d="M 208.697953 138.727559 
L 338.382992 138.727559 
" clip-path="url(#p6d7b5907c4)" style="fill: none; stroke-dasharray: 0.8,1.32; stroke-dashoffset: 0; stroke: #b0b0b0; stroke-opacity: 0.2; stroke-width: 0.8"/>
     </g>
     <g id="line2d_25">
      <g>
       <use xlink:href="#m802b8d2a18" x="208.697953" y="138.727559" style="stroke: #000000; stroke-width: 0.8"/>
      </g>
     </g>
     <g id="text_21">
      <text style="font: 7px 'sans-serif'; text-anchor: end" x="202.197953" y="141.232793" transform="rotate(-0, 202.197953, 141.232793)">0</text>
     </g>
    </g>
    <g id="ytick_8">
     <g id="line2d_26">
      <path d="M 208.697953 118.058943 
L 338.382992 118.058943 
" clip-path="url(#p6d7b5907c4)" style="fill: none; stroke-dasharray: 0.8,1.32; stroke-dashoffset: 0; stroke: #b0b0b0; stroke-opacity: 0.2; stroke-width: 0.8"/>
     </g>
     <g id="line2d_27">
      <g>
       <use xlink:href="#m802b8d2a18" x="208.697953" y="118.058943" style="stroke: #000000; stroke-width: 0.8"/>
      </g>
     </g>
     <g id="text_22">
      <text style="font: 7px 'sans-serif'; text-anchor: end" x="202.197953" y="120.564177" transform="rotate(-0, 202.197953, 120.564177)">2</text>
     </g>
    </g>
    <g id="ytick_9">
     <g id="line2d_28">
      <path d="M 208.697953 97.390326 
L 338.382992 97.390326 
" clip-path="url(#p6d7b5907c4)" style="fill: none; stroke-dasharray: 0.8,1.32; stroke-dashoffset: 0; stroke: #b0b0b0; stroke-opacity: 0.2; stroke-width: 0.8"/>
     </g>
     <g id="line2d_29">
      <g>
       <use xlink:href="#m802b8d2a18" x="208.697953" y="97.390326" style="stroke: #000000; stroke-width: 0.8"/>
      </g>
     </g>
     <g id="text_23">
      <text style="font: 7px 'sans-serif'; text-anchor: end" x="202.197953" y="99.895561" transform="rotate(-0, 202.197953, 99.895561)">4</text>
     </g>
    </g>
    <g id="ytick_10">
     <g id="line2d_30">
      <path d="M 208.697953 76.72171 
L 338.382992 76.72171 
" clip-path="url(#p6d7b5907c4)" style="fill: none; stroke-dasharray: 0.8,1.32; stroke-dashoffset: 0; stroke: #b0b0b0; stroke-opacity: 0.2; stroke-width: 0.8"/>
     </g>
     <g id="line2d_31">
      <g>
       <use xlink:href="#m802b8d2a18" x="208.697953" y="76.72171" style="stroke: #000000; stroke-width: 0.8"/>
      </g>
     </g>
     <g id="text_24">
      <text style="font: 7px 'sans-serif'; text-anchor: end" x="202.197953" y="79.226944" transform="rotate(-0, 202.197953, 79.226944)">6</text>
     </g>
    </g>
    <g id="ytick_11">
     <g id="line2d_32">
      <path d="M 208.697953 56.053093 
L 338.382992 56.053093 
" clip-path="url(#p6d7b5907c4)" style="fill: none; stroke-dasharray: 0.8,1.32; stroke-dashoffset: 0; stroke: #b0b0b0; stroke-opacity: 0.2; stroke-width: 0.8"/>
     </g>
     <g id="line2d_33">
      <g>
       <use xlink:href="#m802b8d2a18" x="208.697953" y="56.053093" style="stroke: #000000; stroke-width: 0.8"/>
      </g>
     </g>
     <g id="text_25">
      <text style="font: 7px 'sans-serif'; text-anchor: end" x="202.197953" y="58.558328" transform="rotate(-0, 202.197953, 58.558328)">8</text>
     </g>
    </g>
    <g id="ytick_12">
     <g id="line2d_34">
      <path d="M 208.697953 35.384477 
L 338.382992 35.384477 
" clip-path="url(#p6d7b5907c4)" style="fill: none; stroke-dasharray: 0.8,1.32; stroke-dashoffset: 0; stroke: #b0b0b0; stroke-opacity: 0.2; stroke-width: 0.8"/>
     </g>
     <g id="line2d_35">
      <g>
       <use xlink:href="#m802b8d2a18" x="208.697953" y="35.384477" style="stroke: #000000; stroke-width: 0.8"/>
      </g>
     </g>
     <g id="text_26">
      <text style="font: 7px 'sans-serif'; text-anchor: end" x="202.197953" y="37.889711" transform="rotate(-0, 202.197953, 37.889711)">10</text>
     </g>
    </g>
    <g id="text_27">
     <!-- $\mathrm{Novel}_{\tau}(g)$ -->
     <g transform="translate(188.94264 100.992441)rotate(-90)">
      <text>
       <tspan style="font: 7px 'DejaVu Sans'" x="0 5.236328 9.519043 13.661621 17.968262 23.121533 30.29585" y="-0.6875">Novel()</tspan>
       <tspan style="font: oblique 4.9px 'DejaVu Sans'" x="19.980078" y="0.4609375">τ</tspan>
       <tspan style="font: oblique 7px 'DejaVu Sans'" x="25.85249" y="-0.6875">g</tspan>
      </text>
     </g>
    </g>
   </g>
   <g id="patch_50">
    <path d="M 208.697953 138.727559 
L 208.697953 30.217323 
" style="fill: none; stroke: #000000; stroke-width: 0.8; stroke-linejoin: miter; stroke-linecap: square"/>
   </g>
   <g id="patch_51">
    <path d="M 208.697953 138.727559 
L 338.382992 138.727559 
" style="fill: none; stroke: #000000; stroke-width: 0.8; stroke-linejoin: miter; stroke-linecap: square"/>
   </g>
   <g id="text_28">
    <text style="font: 8px 'sans-serif'; text-anchor: middle" x="273.540472" y="24.217323" transform="rotate(-0, 273.540472, 24.217323)">Novel basin discovery</text>
   </g>
  </g>
  <g id="axes_3">
   <g id="patch_52">
    <path d="M 382.475906 138.727559 
L 512.160945 138.727559 
L 512.160945 30.217323 
L 382.475906 30.217323 
z
" style="fill: #ffffff"/>
   </g>
   <g id="matplotlib.axis_5">
    <g id="xtick_11">
     <g id="line2d_36">
      <g>
       <use xlink:href="#m9f99d7dd32" x="388.102125" y="138.727559" style="stroke: #000000; stroke-width: 0.8"/>
      </g>
     </g>
     <g id="text_29">
      <text style="font: 7px 'sans-serif'; text-anchor: middle" x="388.102125" y="150.238028" transform="rotate(-0, 388.102125, 150.238028)">0</text>
     </g>
    </g>
    <g id="xtick_12">
     <g id="line2d_37">
      <g>
       <use xlink:href="#m9f99d7dd32" x="414.95759" y="138.727559" style="stroke: #000000; stroke-width: 0.8"/>
      </g>
     </g>
     <g id="text_30">
      <text style="font: 7px 'sans-serif'; text-anchor: middle" x="414.95759" y="150.238028" transform="rotate(-0, 414.95759, 150.238028)">100</text>
     </g>
    </g>
    <g id="xtick_13">
     <g id="line2d_38">
      <g>
       <use xlink:href="#m9f99d7dd32" x="441.813055" y="138.727559" style="stroke: #000000; stroke-width: 0.8"/>
      </g>
     </g>
     <g id="text_31">
      <text style="font: 7px 'sans-serif'; text-anchor: middle" x="441.813055" y="150.238028" transform="rotate(-0, 441.813055, 150.238028)">200</text>
     </g>
    </g>
    <g id="xtick_14">
     <g id="line2d_39">
      <g>
       <use xlink:href="#m9f99d7dd32" x="468.66852" y="138.727559" style="stroke: #000000; stroke-width: 0.8"/>
      </g>
     </g>
     <g id="text_32">
      <text style="font: 7px 'sans-serif'; text-anchor: middle" x="468.66852" y="150.238028" transform="rotate(-0, 468.66852, 150.238028)">300</text>
     </g>
    </g>
    <g id="xtick_15">
     <g id="line2d_40">
      <g>
       <use xlink:href="#m9f99d7dd32" x="495.523984" y="138.727559" style="stroke: #000000; stroke-width: 0.8"/>
      </g>
     </g>
     <g id="text_33">
      <text style="font: 7px 'sans-serif'; text-anchor: middle" x="495.523984" y="150.238028" transform="rotate(-0, 495.523984, 150.238028)">400</text>
     </g>
    </g>
    <g id="text_34">
     <text style="font: 7px 'sans-serif'; text-anchor: middle" x="447.318425" y="160.639747" transform="rotate(-0, 447.318425, 160.639747)">Evaluation step</text>
    </g>
   </g>
   <g id="matplotlib.axis_6">
    <g id="ytick_13">
     <g id="line2d_41">
      <path d="M 382.475906 114.052456 
L 512.160945 114.052456 
" clip-path="url(#p8ef7f3c824)" style="fill: none; stroke-dasharray: 0.8,1.32; stroke-dashoffset: 0; stroke: #b0b0b0; stroke-opacity: 0.2; stroke-width: 0.8"/>
     </g>
     <g id="line2d_42">
      <g>
       <use xlink:href="#m802b8d2a18" x="382.475906" y="114.052456" style="stroke: #000000; stroke-width: 0.8"/>
      </g>
     </g>
     <g id="text_35">
      <text style="font: 7px 'sans-serif'; text-anchor: end" x="375.975906" y="116.557691" transform="rotate(-0, 375.975906, 116.557691)">5</text>
     </g>
    </g>
    <g id="ytick_14">
     <g id="line2d_43">
      <path d="M 382.475906 89.373932 
L 512.160945 89.373932 
" clip-path="url(#p8ef7f3c824)" style="fill: none; stroke-dasharray: 0.8,1.32; stroke-dashoffset: 0; stroke: #b0b0b0; stroke-opacity: 0.2; stroke-width: 0.8"/>
     </g>
     <g id="line2d_44">
      <g>
       <use xlink:href="#m802b8d2a18" x="382.475906" y="89.373932" style="stroke: #000000; stroke-width: 0.8"/>
      </g>
     </g>
     <g id="text_36">
      <text style="font: 7px 'sans-serif'; text-anchor: end" x="375.975906" y="91.879166" transform="rotate(-0, 375.975906, 91.879166)">10</text>
     </g>
    </g>
    <g id="ytick_15">
     <g id="line2d_45">
      <path d="M 382.475906 64.695408 
L 512.160945 64.695408 
" clip-path="url(#p8ef7f3c824)" style="fill: none; stroke-dasharray: 0.8,1.32; stroke-dashoffset: 0; stroke: #b0b0b0; stroke-opacity: 0.2; stroke-width: 0.8"/>
     </g>
     <g id="line2d_46">
      <g>
       <use xlink:href="#m802b8d2a18" x="382.475906" y="64.695408" style="stroke: #000000; stroke-width: 0.8"/>
      </g>
     </g>
     <g id="text_37">
      <text style="font: 7px 'sans-serif'; text-anchor: end" x="375.975906" y="67.200642" transform="rotate(-0, 375.975906, 67.200642)">15</text>
     </g>
    </g>
    <g id="ytick_16">
     <g id="line2d_47">
      <path d="M 382.475906 40.016884 
L 512.160945 40.016884 
" clip-path="url(#p8ef7f3c824)" style="fill: none; stroke-dasharray: 0.8,1.32; stroke-dashoffset: 0; stroke: #b0b0b0; stroke-opacity: 0.2; stroke-width: 0.8"/>
     </g>
     <g id="line2d_48">
      <g>
       <use xlink:href="#m802b8d2a18" x="382.475906" y="40.016884" style="stroke: #000000; stroke-width: 0.8"/>
      </g>
     </g>
     <g id="text_38">
      <text style="font: 7px 'sans-serif'; text-anchor: end" x="375.975906" y="42.522118" transform="rotate(-0, 375.975906, 42.522118)">20</text>
     </g>
    </g>
    <g id="text_39">
     <!-- $N_{\mathrm{eff}}(t)$ -->
     <g transform="translate(362.799343 94.552441)rotate(-90)">
      <text>
       <tspan style="font: oblique 7px 'DejaVu Sans'" x="0 14.623437" y="-0.6875">Nt</tspan>
       <tspan style="font: 4.9px 'DejaVu Sans'" x="5.236328 8.250977 9.976025" y="0.4609375">eff</tspan>
       <tspan style="font: 7px 'DejaVu Sans'" x="11.89248 17.368066" y="-0.6875">()</tspan>
      </text>
     </g>
    </g>
   </g>
   <g id="line2d_49">
    <path d="M 388.37068 133.795276 
L 390.787672 89.373932 
L 391.056227 90.866964 
L 391.324781 91.721322 
L 391.593336 92.134232 
L 392.667554 73.03297 
L 392.936109 73.4434 
L 393.204664 73.618245 
L 393.473218 73.603965 
L 394.010328 76.187445 
L 394.278882 71.757246 
L 394.547437 72.755517 
L 394.815992 72.173643 
L 395.353101 63.485841 
L 395.621656 62.936759 
L 395.89021 58.586869 
L 396.158765 58.021963 
L 396.427319 59.635453 
L 396.695874 55.382982 
L 396.964429 56.871484 
L 397.232983 56.105412 
L 397.501538 57.33843 
L 397.770093 53.244429 
L 398.038647 53.622792 
L 398.575757 51.842253 
L 398.844311 47.82445 
L 399.112866 49.394006 
L 399.381421 48.445749 
L 399.649975 49.818893 
L 399.91853 49.875367 
L 400.187085 51.046519 
L 400.455639 49.983822 
L 400.724194 46.224038 
L 400.992748 46.837585 
L 401.529858 46.62387 
L 401.798412 47.893462 
L 402.066967 47.684563 
L 402.335522 48.806981 
L 402.872631 41.718848 
L 403.141186 42.864633 
L 403.40974 42.598149 
L 403.678295 41.437199 
L 403.94685 42.117903 
L 404.215404 42.339207 
L 404.483959 43.501653 
L 404.752514 43.639953 
L 405.021068 44.681712 
L 405.289623 43.472805 
L 405.558177 40.183554 
L 405.826732 38.979196 
L 406.095287 39.986204 
L 406.363841 40.034497 
L 406.632396 39.573227 
L 406.900951 40.225888 
L 407.169505 39.735686 
L 407.43806 40.752076 
L 407.706615 41.029098 
L 407.975169 41.951967 
L 408.243724 41.841555 
L 408.512279 40.60895 
L 408.780833 40.049179 
L 409.049388 37.024489 
L 409.317943 37.891923 
L 409.855052 38.232561 
L 410.392161 39.182278 
L 410.660716 40.030496 
L 410.92927 40.334507 
L 411.46638 41.715864 
L 411.734934 41.070206 
L 412.003489 38.290299 
L 412.272044 38.031252 
L 413.077708 40.427071 
L 413.346262 37.727696 
L 413.614817 38.491243 
L 413.883372 38.827693 
L 414.420481 40.404285 
L 414.689036 40.057135 
L 414.95759 37.453082 
L 415.763254 40.366036 
L 416.031809 39.166021 
L 416.300363 39.833352 
L 416.568918 40.162193 
L 417.106027 35.149606 
L 417.374582 35.820336 
L 418.717355 41.020379 
L 418.98591 40.299334 
L 419.254465 40.87941 
L 419.523019 41.187163 
L 420.060128 38.863839 
L 420.328683 39.416619 
L 421.402902 43.456826 
L 421.671456 42.987153 
L 422.208566 43.763591 
L 422.745675 42.301526 
L 423.01423 42.770734 
L 424.088448 46.538297 
L 424.357003 46.215287 
L 424.625557 47.143758 
L 425.162667 47.77545 
L 425.699776 46.767775 
L 426.773995 50.281351 
L 427.042549 50.046818 
L 427.579659 51.756986 
L 428.116768 52.257421 
L 428.385323 51.886556 
L 429.459541 55.105621 
L 429.728096 54.922239 
L 430.265205 56.478062 
L 430.53376 56.735115 
L 430.802314 55.038915 
L 431.070869 55.187373 
L 432.145088 58.192818 
L 432.413642 58.047957 
L 432.950752 59.494484 
L 433.487861 59.947616 
L 433.756415 59.026368 
L 434.830634 61.773795 
L 435.099189 61.652467 
L 435.367743 62.316259 
L 435.904853 59.924191 
L 436.441962 58.744346 
L 437.516181 61.428486 
L 437.784735 59.966383 
L 438.05329 59.880688 
L 438.321844 59.47682 
L 438.590399 60.138686 
L 439.127508 59.568385 
L 440.470282 62.751576 
L 440.738836 61.911464 
L 441.007391 61.839407 
L 441.275946 61.634994 
L 441.5445 60.250386 
L 441.813055 60.097212 
L 443.155828 63.151009 
L 443.424383 61.819799 
L 443.692937 61.195074 
L 444.498601 60.931302 
L 445.841375 63.842384 
L 446.378484 62.562992 
L 447.184148 62.404245 
L 448.526921 65.142775 
L 448.795476 63.922691 
L 449.332585 62.931377 
L 449.869694 62.86566 
L 450.138249 61.638119 
L 452.018132 65.352758 
L 452.555241 64.144709 
L 452.823795 64.659607 
L 453.09235 63.923821 
L 455.509342 68.360019 
L 455.777897 67.810383 
L 458.463443 72.293243 
L 458.731998 71.857031 
L 461.14899 75.5226 
L 461.417544 75.16138 
L 464.103091 78.864354 
L 464.371645 78.558292 
L 467.057192 81.912168 
L 470.011293 85.237024 
L 472.965394 88.226507 
L 476.18805 91.154163 
L 479.410706 93.778865 
L 482.901916 96.326296 
L 486.393126 98.60734 
L 490.152892 100.806979 
L 494.181211 102.90955 
L 498.478086 104.904474 
L 503.043515 106.785529 
L 506.26617 107.985554 
L 506.26617 107.985554 
" clip-path="url(#p8ef7f3c824)" style="fill: none; stroke: #54a24b; stroke-width: 1.1; stroke-linecap: square"/>
   </g>
   <g id="patch_53">
    <path d="M 382.475906 138.727559 
L 382.475906 30.217323 
" style="fill: none; stroke: #000000; stroke-width: 0.8; stroke-linejoin: miter; stroke-linecap: square"/>
   </g>
   <g id="patch_54">
    <path d="M 382.475906 138.727559 
L 512.160945 138.727559 
" style="fill: none; stroke: #000000; stroke-width: 0.8; stroke-linejoin: miter; stroke-linecap: square"/>
   </g>
   <g id="text_40">
    <text style="font: 8px 'sans-serif'; text-anchor: middle" x="447.318425" y="24.217323" transform="rotate(-0, 447.318425, 24.217323)">Cumulative exploration</text>
   </g>
   <g id="legend_1">
    <g id="line2d_50">
     <path d="M 387.875906 37.964823 
L 393.875906 37.964823 
L 399.875906 37.964823 
" style="fill: none; stroke: #54a24b; stroke-width: 1.1; stroke-linecap: square"/>
    </g>
    <g id="text_41">
     <!-- $N_{\mathrm{eff}}(t)$ -->
     <g transform="translate(404.675906 40.064823)">
      <text>
       <tspan style="font: oblique 6px 'DejaVu Sans'" x="0 12.534375" y="-0.453125">Nt</tspan>
       <tspan style="font: 4.2px 'DejaVu Sans'" x="4.488281 7.072266 8.550879" y="0.53125">eff</tspan>
       <tspan style="font: 6px 'DejaVu Sans'" x="10.193555 14.886914" y="-0.453125">()</tspan>
      </text>
     </g>
    </g>
    <g id="line2d_51">
     <path d="M 387.875906 46.45201 
L 393.875906 46.45201 
L 399.875906 46.45201 
" style="fill: none; stroke-dasharray: 3.7,1.6; stroke-dashoffset: 0; stroke: #b279a2"/>
    </g>
    <g id="text_42">
     <text style="font: 6px 'sans-serif'; text-anchor: start" x="404.675906" y="48.55201" transform="rotate(-0, 404.675906, 48.55201)">Cumulative basins</text>
    </g>
   </g>
  </g>
  <g id="axes_4">
   <g id="matplotlib.axis_7">
    <g id="ytick_17">
     <g id="line2d_52">
      <defs>
       <path id="ma073502eed" d="M 0 0 
L 3 0 
" style="stroke: #000000; stroke-width: 0.8"/>
      </defs>
      <g>
       <use xlink:href="#ma073502eed" x="512.160945" y="136.461375" style="stroke: #000000; stroke-width: 0.8"/>
      </g>
     </g>
     <g id="text_43">
      <text style="font: 7px 'sans-serif'; text-anchor: start" x="518.660945" y="138.966609" transform="rotate(-0, 518.660945, 138.966609)">0</text>
     </g>
    </g>
    <g id="ytick_18">
     <g id="line2d_53">
      <g>
       <use xlink:href="#ma073502eed" x="512.160945" y="109.800383" style="stroke: #000000; stroke-width: 0.8"/>
      </g>
     </g>
     <g id="text_44">
      <text style="font: 7px 'sans-serif'; text-anchor: start" x="518.660945" y="112.305617" transform="rotate(-0, 518.660945, 112.305617)">10</text>
     </g>
    </g>
    <g id="ytick_19">
     <g id="line2d_54">
      <g>
       <use xlink:href="#ma073502eed" x="512.160945" y="83.139391" style="stroke: #000000; stroke-width: 0.8"/>
      </g>
     </g>
     <g id="text_45">
      <text style="font: 7px 'sans-serif'; text-anchor: start" x="518.660945" y="85.644626" transform="rotate(-0, 518.660945, 85.644626)">20</text>
     </g>
    </g>
    <g id="ytick_20">
     <g id="line2d_55">
      <g>
       <use xlink:href="#ma073502eed" x="512.160945" y="56.4784" style="stroke: #000000; stroke-width: 0.8"/>
      </g>
     </g>
     <g id="text_46">
      <text style="font: 7px 'sans-serif'; text-anchor: start" x="518.660945" y="58.983634" transform="rotate(-0, 518.660945, 58.983634)">30</text>
     </g>
    </g>
    <g id="text_47">
     <text style="font: 7px 'sans-serif'; text-anchor: middle" x="535.456726" y="84.472441" transform="rotate(-90, 535.456726, 84.472441)">Unique basins</text>
    </g>
   </g>
   <g id="line2d_56">
    <path d="M 388.37068 133.795276 
L 390.787672 109.800383 
L 391.593336 109.800383 
L 392.667554 99.135986 
L 394.010328 99.135986 
L 394.278882 96.469887 
L 394.815992 96.469887 
L 395.353101 91.137689 
L 395.621656 91.137689 
L 395.89021 88.47159 
L 396.427319 88.47159 
L 396.695874 85.805491 
L 397.501538 85.805491 
L 397.770093 83.139391 
L 398.575757 83.139391 
L 398.844311 80.473292 
L 400.455639 80.473292 
L 400.724194 77.807193 
L 402.335522 77.807193 
L 402.872631 72.474995 
L 405.289623 72.474995 
L 405.558177 69.808896 
L 408.780833 69.808896 
L 409.049388 67.142796 
L 411.734934 67.142796 
L 412.003489 64.476697 
L 413.077708 64.476697 
L 413.346262 61.810598 
L 414.689036 61.810598 
L 414.95759 59.144499 
L 416.568918 59.144499 
L 417.106027 53.8123 
L 430.53376 53.8123 
L 430.802314 51.146201 
L 435.367743 51.146201 
L 435.636298 48.480102 
L 437.516181 48.480102 
L 437.784735 45.814003 
L 441.275946 45.814003 
L 441.5445 43.147904 
L 443.155828 43.147904 
L 443.424383 40.481805 
L 448.526921 40.481805 
L 448.795476 37.815705 
L 449.869694 37.815705 
L 450.138249 35.149606 
L 506.26617 35.149606 
L 506.26617 35.149606 
" clip-path="url(#p8ef7f3c824)" style="fill: none; stroke-dasharray: 3.7,1.6; stroke-dashoffset: 0; stroke: #b279a2"/>
   </g>
   <g id="patch_55">
    <path d="M 382.475906 138.727559 
L 382.475906 30.217323 
" style="fill: none; stroke: #000000; stroke-width: 0.8; stroke-linejoin: miter; stroke-linecap: square"/>
   </g>
   <g id="patch_56">
    <path d="M 382.475906 138.727559 
L 512.160945 138.727559 
" style="fill: none; stroke: #000000; stroke-width: 0.8; stroke-linejoin: miter; stroke-linecap: square"/>
   </g>
  </g>
  <g id="text_48">
   <text style="font: 9px 'sans-serif'; text-anchor: middle" x="257.978268" y="13.751719" transform="rotate(-0, 257.978268, 13.751719)">Crime sampled: diversity and basin exploration</text>
  </g>
 </g>
 <defs>
  <clipPath id="p0a4509e97f">
   <rect x="34.92" y="30.217323" width="129.685039" height="108.510236"/>
  </clipPath>
  <clipPath id="p6d7b5907c4">
   <rect x="208.697953" y="30.217323" width="129.685039" height="108.510236"/>
  </clipPath>
  <clipPath id="p8ef7f3c824">
   <rect x="382.475906" y="30.217323" width="129.685039" height="108.510236"/>
  </clipPath>
 </defs>
</svg>
