<?xml version="1.0" encoding="utf-8" standalone="no"?>
<!DOCTYPE svg PUBLIC "-//W3C//DTD SVG 1.1//EN"
  "http://www.w3.org/Graphics/SVG/1.1/DTD/svg11.dtd">
<svg xmlns:xlink="http://www.w3.org/1999/xlink" width="293.413182pt" height="182.385269pt" viewBox="0 0 293.413182 182.385269" xmlns="http://www.w3.org/2000/svg" version="1.1">
 <metadata>
  <rdf:RDF xmlns:dc="http://purl.org/dc/elements/1.1/" xmlns:cc="http://creativecommons.org/ns#" xmlns:rdf="http://www.w3.org/1999/02/22-rdf-syntax-ns#">
   <cc:Work>
    <dc:type rdf:resource="http://purl.org/dc/dcmitype/StillImage"/>
    <dc:date>2026-06-12T14:59:26.145729</dc:date>
    <dc:format>image/svg+xml</dc:format>
    <dc:creator>
     <cc:Agent>
      <dc:title>Matplotlib v3.5.3, https://matplotlib.org/</dc:title>
     </cc:Agent>
    </dc:creator>
   </cc:Work>
  </rdf:RDF>
 </metadata>
 <defs>
  <style type="text/css">*{stroke-linejoin: round; stroke-linecap: butt}</style>
 </defs>
 <g id="figure_1">
  <g id="patch_1">
   <path d="M 0 182.385269 
L 293.413182 182.385269 
L 293.413182 0 
L 0 0 
z
" style="fill: #ffffff"/>
  </g>
  <g id="axes_1">
   <g id="patch_2">
    <path d="M 40.165937 154.349734 
L 286.213182 154.349734 
L 286.213182 19.02375 
L 40.165937 19.02375 
z
" style="fill: #ffffff"/>
   </g>
   <g id="line2d_1">
    <path d="M 51.349903 45.52398 
L 67.918741 46.164895 
" clip-path="url(#p8a503af490)" style="fill: none; stroke: #b5b5b5; stroke-width: 0.9; stroke-linecap: square"/>
   </g>
   <g id="line2d_2">
    <path d="M 154.905141 148.198553 
L 171.473979 127.144497 
" clip-path="url(#p8a503af490)" style="fill: none; stroke: #b5b5b5; stroke-width: 0.9; stroke-linecap: square"/>
   </g>
   <g id="line2d_3">
    <path d="M 258.460378 52.766319 
L 275.029216 25.174931 
" clip-path="url(#p8a503af490)" style="fill: none; stroke: #b5b5b5; stroke-width: 0.9; stroke-linecap: square"/>
   </g>
   <g id="PathCollection_1"/>
   <g id="PathCollection_2"/>
   <g id="matplotlib.axis_1">
    <g id="xtick_1">
     <g id="line2d_4">
      <defs>
       <path id="m750347a43d" d="M 0 0 
L 0 2.8 
" style="stroke: #000000; stroke-width: 0.75"/>
      </defs>
      <g>
       <use xlink:href="#m750347a43d" x="59.634322" y="154.349734" style="stroke: #000000; stroke-width: 0.75"/>
      </g>
     </g>
     <g id="text_1">
      <text style="font: 6.5px 'sans-serif'" transform="translate(42.341656 168.241237)rotate(-10)">Crime</text>
     </g>
    </g>
    <g id="xtick_2">
     <g id="line2d_5">
      <g>
       <use xlink:href="#m750347a43d" x="163.18956" y="154.349734" style="stroke: #000000; stroke-width: 0.75"/>
      </g>
     </g>
     <g id="text_2">
      <text style="font: 6.5px 'sans-serif'" transform="translate(115.652986 173.593058)rotate(-10)">HI-II-14 sampled</text>
     </g>
    </g>
    <g id="xtick_3">
     <g id="line2d_6">
      <g>
       <use xlink:href="#m750347a43d" x="266.744797" y="154.349734" style="stroke: #000000; stroke-width: 0.75"/>
      </g>
     </g>
     <g id="text_3">
      <text style="font: 6.5px 'sans-serif'" transform="translate(217.285848 173.913021)rotate(-10)">Youtube sampled</text>
     </g>
    </g>
   </g>
   <g id="matplotlib.axis_2">
    <g id="ytick_1">
     <g id="line2d_7">
      <path d="M 40.165937 141.565084 
L 286.213182 141.565084 
" clip-path="url(#p8a503af490)" style="fill: none; stroke-dasharray: 0.7,1.155; stroke-dashoffset: 0; stroke: #b0b0b0; stroke-opacity: 0.22; stroke-width: 0.7"/>
     </g>
     <g id="line2d_8">
      <defs>
       <path id="m565b2c57c2" d="M 0 0 
L -2.8 0 
" style="stroke: #000000; stroke-width: 0.75"/>
      </defs>
      <g>
       <use xlink:href="#m565b2c57c2" x="40.165937" y="141.565084" style="stroke: #000000; stroke-width: 0.75"/>
      </g>
     </g>
     <g id="text_4">
      <text style="font: 6.5px 'sans-serif'; text-anchor: end" x="33.865938" y="143.891373" transform="rotate(-0, 33.865938, 143.891373)">0.055</text>
     </g>
    </g>
    <g id="ytick_2">
     <g id="line2d_9">
      <path d="M 40.165937 125.54221 
L 286.213182 125.54221 
" clip-path="url(#p8a503af490)" style="fill: none; stroke-dasharray: 0.7,1.155; stroke-dashoffset: 0; stroke: #b0b0b0; stroke-opacity: 0.22; stroke-width: 0.7"/>
     </g>
     <g id="line2d_10">
      <g>
       <use xlink:href="#m565b2c57c2" x="40.165937" y="125.54221" style="stroke: #000000; stroke-width: 0.75"/>
      </g>
     </g>
     <g id="text_5">
      <text style="font: 6.5px 'sans-serif'; text-anchor: end" x="33.865938" y="127.868499" transform="rotate(-0, 33.865938, 127.868499)">0.060</text>
     </g>
    </g>
    <g id="ytick_3">
     <g id="line2d_11">
      <path d="M 40.165937 109.519337 
L 286.213182 109.519337 
" clip-path="url(#p8a503af490)" style="fill: none; stroke-dasharray: 0.7,1.155; stroke-dashoffset: 0; stroke: #b0b0b0; stroke-opacity: 0.22; stroke-width: 0.7"/>
     </g>
     <g id="line2d_12">
      <g>
       <use xlink:href="#m565b2c57c2" x="40.165937" y="109.519337" style="stroke: #000000; stroke-width: 0.75"/>
      </g>
     </g>
     <g id="text_6">
      <text style="font: 6.5px 'sans-serif'; text-anchor: end" x="33.865938" y="111.845626" transform="rotate(-0, 33.865938, 111.845626)">0.065</text>
     </g>
    </g>
    <g id="ytick_4">
     <g id="line2d_13">
      <path d="M 40.165937 93.496463 
L 286.213182 93.496463 
" clip-path="url(#p8a503af490)" style="fill: none; stroke-dasharray: 0.7,1.155; stroke-dashoffset: 0; stroke: #b0b0b0; stroke-opacity: 0.22; stroke-width: 0.7"/>
     </g>
     <g id="line2d_14">
      <g>
       <use xlink:href="#m565b2c57c2" x="40.165937" y="93.496463" style="stroke: #000000; stroke-width: 0.75"/>
      </g>
     </g>
     <g id="text_7">
      <text style="font: 6.5px 'sans-serif'; text-anchor: end" x="33.865938" y="95.822752" transform="rotate(-0, 33.865938, 95.822752)">0.070</text>
     </g>
    </g>
    <g id="ytick_5">
     <g id="line2d_15">
      <path d="M 40.165937 77.47359 
L 286.213182 77.47359 
" clip-path="url(#p8a503af490)" style="fill: none; stroke-dasharray: 0.7,1.155; stroke-dashoffset: 0; stroke: #b0b0b0; stroke-opacity: 0.22; stroke-width: 0.7"/>
     </g>
     <g id="line2d_16">
      <g>
       <use xlink:href="#m565b2c57c2" x="40.165937" y="77.47359" style="stroke: #000000; stroke-width: 0.75"/>
      </g>
     </g>
     <g id="text_8">
      <text style="font: 6.5px 'sans-serif'; text-anchor: end" x="33.865938" y="79.799879" transform="rotate(-0, 33.865938, 79.799879)">0.075</text>
     </g>
    </g>
    <g id="ytick_6">
     <g id="line2d_17">
      <path d="M 40.165937 61.450717 
L 286.213182 61.450717 
" clip-path="url(#p8a503af490)" style="fill: none; stroke-dasharray: 0.7,1.155; stroke-dashoffset: 0; stroke: #b0b0b0; stroke-opacity: 0.22; stroke-width: 0.7"/>
     </g>
     <g id="line2d_18">
      <g>
       <use xlink:href="#m565b2c57c2" x="40.165937" y="61.450717" style="stroke: #000000; stroke-width: 0.75"/>
      </g>
     </g>
     <g id="text_9">
      <text style="font: 6.5px 'sans-serif'; text-anchor: end" x="33.865938" y="63.777006" transform="rotate(-0, 33.865938, 63.777006)">0.080</text>
     </g>
    </g>
    <g id="ytick_7">
     <g id="line2d_19">
      <path d="M 40.165937 45.427843 
L 286.213182 45.427843 
" clip-path="url(#p8a503af490)" style="fill: none; stroke-dasharray: 0.7,1.155; stroke-dashoffset: 0; stroke: #b0b0b0; stroke-opacity: 0.22; stroke-width: 0.7"/>
     </g>
     <g id="line2d_20">
      <g>
       <use xlink:href="#m565b2c57c2" x="40.165937" y="45.427843" style="stroke: #000000; stroke-width: 0.75"/>
      </g>
     </g>
     <g id="text_10">
      <text style="font: 6.5px 'sans-serif'; text-anchor: end" x="33.865938" y="47.754132" transform="rotate(-0, 33.865938, 47.754132)">0.085</text>
     </g>
    </g>
    <g id="ytick_8">
     <g id="line2d_21">
      <path d="M 40.165937 29.40497 
L 286.213182 29.40497 
" clip-path="url(#p8a503af490)" style="fill: none; stroke-dasharray: 0.7,1.155; stroke-dashoffset: 0; stroke: #b0b0b0; stroke-opacity: 0.22; stroke-width: 0.7"/>
     </g>
     <g id="line2d_22">
      <g>
       <use xlink:href="#m565b2c57c2" x="40.165937" y="29.40497" style="stroke: #000000; stroke-width: 0.75"/>
      </g>
     </g>
     <g id="text_11">
      <text style="font: 6.5px 'sans-serif'; text-anchor: end" x="33.865938" y="31.731259" transform="rotate(-0, 33.865938, 31.731259)">0.090</text>
     </g>
    </g>
    <g id="text_12">
     <text style="font: 7px 'sans-serif'; text-anchor: middle" x="12.210469" y="86.686742" transform="rotate(-90, 12.210469, 86.686742)">Final best ANC</text>
    </g>
   </g>
   <g id="patch_3">
    <path d="M 40.165937 154.349734 
L 40.165937 19.02375 
" style="fill: none; stroke: #000000; stroke-width: 0.75; stroke-linejoin: miter; stroke-linecap: square"/>
   </g>
   <g id="patch_4">
    <path d="M 40.165937 154.349734 
L 286.213182 154.349734 
" style="fill: none; stroke: #000000; stroke-width: 0.75; stroke-linejoin: miter; stroke-linecap: square"/>
   </g>
   <g id="PathCollection_3">
    <defs>
     <path id="mce12e8f286" d="M 0 2.645751 
C 0.701661 2.645751 1.374679 2.366978 1.870829 1.870829 
C 2.366978 1.374679 2.645751 0.701661 2.645751 0 
C 2.645751 -0.701661 2.366978 -1.374679 1.870829 -1.870829 
C 1.374679 -2.366978 0.701661 -2.645751 0 -2.645751 
C -0.701661 -2.645751 -1.374679 -2.366978 -1.870829 -1.870829 
C -2.366978 -1.374679 -2.645751 -0.701661 -2.645751 0 
C -2.645751 0.701661 -2.366978 1.374679 -1.870829 1.870829 
C -1.374679 2.366978 -0.701661 2.645751 0 2.645751 
z
" style="stroke: #ffffff; stroke-width: 0.5"/>
    </defs>
    <g clip-path="url(#p8a503af490)">
     <use xlink:href="#mce12e8f286" x="51.349903" y="45.52398" style="fill: #4c78a8; stroke: #ffffff; stroke-width: 0.5"/>
    </g>
   </g>
   <g id="PathCollection_4">
    <defs>
     <path id="md21daf1d31" d="M 0 2.645751 
C 0.701661 2.645751 1.374679 2.366978 1.870829 1.870829 
C 2.366978 1.374679 2.645751 0.701661 2.645751 0 
C 2.645751 -0.701661 2.366978 -1.374679 1.870829 -1.870829 
C 1.374679 -2.366978 0.701661 -2.645751 0 -2.645751 
C -0.701661 -2.645751 -1.374679 -2.366978 -1.870829 -1.870829 
C -2.366978 -1.374679 -2.645751 -0.701661 -2.645751 0 
C -2.645751 0.701661 -2.366978 1.374679 -1.870829 1.870829 
C -1.374679 2.366978 -0.701661 2.645751 0 2.645751 
z
" style="stroke: #ffffff; stroke-width: 0.5"/>
    </defs>
    <g clip-path="url(#p8a503af490)">
     <use xlink:href="#md21daf1d31" x="67.918741" y="46.164895" style="fill: #e45756; stroke: #ffffff; stroke-width: 0.5"/>
    </g>
   </g>
   <g id="PathCollection_5">
    <g clip-path="url(#p8a503af490)">
     <use xlink:href="#mce12e8f286" x="154.905141" y="148.198553" style="fill: #4c78a8; stroke: #ffffff; stroke-width: 0.5"/>
    </g>
   </g>
   <g id="PathCollection_6">
    <g clip-path="url(#p8a503af490)">
     <use xlink:href="#md21daf1d31" x="171.473979" y="127.144497" style="fill: #e45756; stroke: #ffffff; stroke-width: 0.5"/>
    </g>
   </g>
   <g id="PathCollection_7">
    <g clip-path="url(#p8a503af490)">
     <use xlink:href="#mce12e8f286" x="258.460378" y="52.766319" style="fill: #4c78a8; stroke: #ffffff; stroke-width: 0.5"/>
    </g>
   </g>
   <g id="PathCollection_8">
    <g clip-path="url(#p8a503af490)">
     <use xlink:href="#md21daf1d31" x="275.029216" y="25.174931" style="fill: #e45756; stroke: #ffffff; stroke-width: 0.5"/>
    </g>
   </g>
   <g id="text_13">
    <text style="font: 8px 'sans-serif'; text-anchor: middle" x="163.18956" y="13.02375" transform="rotate(-0, 163.18956, 13.02375)">Reflection improves final search outcomes</text>
   </g>
   <g id="legend_1">
    <g id="PathCollection_9">
     <defs>
      <path id="m4a261616e0" d="M 0 2.645751 
C 0.701661 2.645751 1.374679 2.366978 1.870829 1.870829 
C 2.366978 1.374679 2.645751 0.701661 2.645751 0 
C 2.645751 -0.701661 2.366978 -1.374679 1.870829 -1.870829 
C 1.374679 -2.366978 0.701661 -2.645751 0 -2.645751 
C -0.701661 -2.645751 -1.374679 -2.366978 -1.870829 -1.870829 
C -2.366978 -1.374679 -2.645751 -0.701661 -2.645751 0 
C -2.645751 0.701661 -2.366978 1.374679 -1.870829 1.870829 
C -1.374679 2.366978 -0.701661 2.645751 0 2.645751 
z
" style="stroke: #4c78a8"/>
     </defs>
     <g>
      <use xlink:href="#m4a261616e0" x="234.993807" y="27.143437" style="fill: #4c78a8; stroke: #4c78a8"/>
     </g>
    </g>
    <g id="text_14">
     <text style="font: 6px 'sans-serif'; text-anchor: start" x="245.793807" y="28.718437" transform="rotate(-0, 245.793807, 28.718437)">Reflection on</text>
    </g>
    <g id="PathCollection_10">
     <defs>
      <path id="m6e185f3292" d="M 0 2.645751 
C 0.701661 2.645751 1.374679 2.366978 1.870829 1.870829 
C 2.366978 1.374679 2.645751 0.701661 2.645751 0 
C 2.645751 -0.701661 2.366978 -1.374679 1.870829 -1.870829 
C 1.374679 -2.366978 0.701661 -2.645751 0 -2.645751 
C -0.701661 -2.645751 -1.374679 -2.366978 -1.870829 -1.870829 
C -2.366978 -1.374679 -2.645751 -0.701661 -2.645751 0 
C -2.645751 0.701661 -2.366978 1.374679 -1.870829 1.870829 
C -1.374679 2.366978 -0.701661 2.645751 0 2.645751 
z
" style="stroke: #e45756"/>
     </defs>
     <g>
      <use xlink:href="#m6e185f3292" x="234.993807" y="35.630625" style="fill: #e45756; stroke: #e45756"/>
     </g>
    </g>
    <g id="text_15">
     <text style="font: 6px 'sans-serif'; text-anchor: start" x="245.793807" y="37.205625" transform="rotate(-0, 245.793807, 37.205625)">Reflection off</text>
    </g>
   </g>
  </g>
 </g>
 <defs>
  <clipPath id="p8a503af490">
   <rect x="40.165937" y="19.02375" width="246.047244" height="135.325984"/>
  </clipPath>
 </defs>
</svg>
